<?xml version="1.0" encoding="UTF-8" standalone="no"?>
<!-- Created with Inkscape (http://www.inkscape.org/) -->
<svg id="svg2" xmlns:rdf="http://www.w3.org/1999/02/22-rdf-syntax-ns#" xmlns="http://www.w3.org/2000/svg" xml:space="preserve" height="975" viewBox="0 0 1370 975" width="1370" version="1.1" xmlns:cc="http://creativecommons.org/ns#" xmlns:dc="http://purl.org/dc/elements/1.1/"><metadata id="metadata8"><rdf:RDF><cc:Work rdf:about=""><dc:format>image/svg+xml</dc:format><dc:type rdf:resource="http://purl.org/dc/dcmitype/StillImage"/><dc:title/></cc:Work></rdf:RDF></metadata><defs id="defs6"><clipPath id="clipPath16" clipPathUnits="userSpaceOnUse"><path id="path18" d="m0 780h1096v-780h-1096v780z"/></clipPath><clipPath id="clipPath24" clipPathUnits="userSpaceOnUse"><path id="path26" d="m0 780h1096v-780h-1096v780z"/></clipPath><clipPath id="clipPath478" clipPathUnits="userSpaceOnUse"><path id="path480" d="m0 780h1096v-780h-1096v780z"/></clipPath></defs><g id="g10" transform="matrix(1.25,0,0,-1.25,0,975)"><g id="g12"><g id="g14" clip-path="url(#clipPath16)"><g id="g20"><g id="g28"><g id="g30" opacity=".25" clip-path="url(#clipPath24)"><path id="path32" d="m1096 0h-1096v780h1096v-780z" fill="#29abe2"/></g></g></g><g id="g34" transform="translate(527.52 114.46)"><path id="path36" d="m0 0-2.835 2.699 3.231 31.365c0.769 7.464-0.327 13.653-2.461 13.809l-0.103 0.011c-2.128 0.157-4.48-5.771-5.247-13.23l-3.344-32.435-2.31-1.337c-7.392-4.273-12.391-8.921-11.165-10.377l0.06-0.074c1.062-1.262 6.431 0.284 12.647 3.492-0.257-6.153 0.813-10.921 2.669-10.978l0.105-0.002c1.899-0.058 3.969 4.588 4.941 10.889 5.233-4.541 10.176-7.262 11.594-6.23l0.076 0.055c1.606 1.164-1.908 6.691-7.858 12.343" fill="#ff931e"/></g><g id="g38" transform="translate(587.64 115.71)"><path id="path40" d="m0 0-2.283 1.382-2.717 32.198c-0.632 7.477-2.852 13.192-4.983 13.052l-0.11-0.005c-2.127-0.142-3.364-5.995-2.735-13.475l2.63-31.145-2.887-2.646c-6.052-5.539-9.673-10.998-8.087-12.193l0.079-0.063c1.401-1.05 6.389 1.576 11.701 6.016 0.846-6.375 2.836-11.115 4.752-11.008l0.097 0.037c1.852 0.106 3.014 4.786 2.872 10.92 6.154-3.321 11.496-4.966 12.576-3.728l0.065 0.076c1.255 1.432-3.655 6.178-10.97 10.582" fill="#ff931e"/></g><g id="g42" transform="translate(453.82 359.14)"><path id="path44" d="m0 0c5.845 4.871 32.151-6.82 32.151-6.82s30.2 15.587 65.274 15.587c35.07 0 59.427-15.587 59.427-15.587s30.203 14.614 36.05 9.743c5.843-4.872-5.885-45.232-5.847-60.403 0.126-49.162 37.022-171.47-94.502-172.44-131.52-0.98-91.373 123.89-89.625 172.44 0.516 14.376-8.77 52.608-2.923 57.48" fill="#f9a704"/></g><g id="g46" transform="translate(640.88 301.66)"><path id="path48" d="m0 0c0 0.385 0.013 0.799 0.024 1.217-8.009 16.242-24.725 27.425-44.061 27.425-22.862 0-42.077-15.631-47.541-36.787-5.466 21.156-24.681 36.787-47.545 36.787-20.174 0-37.5-12.173-45.054-29.569-0.36-8.028-1.686-18.02-3.104-29.136 4.47-22.521 24.327-39.5 48.158-39.5 22.864 0 42.079 15.627 47.545 36.788 5.464-21.161 24.679-36.788 47.541-36.788 21.889 0 40.426 14.329 46.763 34.108-1.308 13.621-2.715 25.917-2.739 35.455" fill="#fcd2ac"/></g><g id="g50" transform="translate(550.76 224.7)"><path id="path52" d="m0 0c-41.697 0-75.503-32.933-75.503-73.558 0-0.337 0.023-0.674 0.025-1.014 14.688-13.02 37.17-21.156 71.094-20.905 40.417 0.3 64.909 12.068 79.475 29.636-3.96 36.998-36.066 65.841-75.091 65.841" fill="#fcd2ac"/></g><g id="g54" transform="translate(560.99 264.3)"><path id="path56" d="m0 0c-8.732 10.237-22.519 3.839-23.439 0-0.92-3.841 12.695-23.038 12.695-23.038s10.687 19.197 10.744 23.038" fill="#f99525"/></g><g id="g58" transform="translate(499.38 267.64)"><path id="path60" d="m0 0c-14.44 0-26.324 10.913-27.877 24.94-0.112-1.025-0.18-2.063-0.18-3.119 0-15.497 12.561-28.057 28.057-28.057 15.499 0 28.06 12.56 28.06 28.057 0 1.056-0.069 2.094-0.184 3.119-1.55-14.027-13.434-24.94-27.876-24.94"/></g><g id="g62" transform="translate(596.81 267.64)"><path id="path64" d="m0 0c-14.44 0-26.324 10.913-27.877 24.94-0.112-1.025-0.181-2.063-0.181-3.119 0-15.497 12.562-28.057 28.058-28.057 15.497 0 28.059 12.56 28.059 28.057 0 1.056-0.069 2.094-0.183 3.119-1.551-14.027-13.434-24.94-27.876-24.94"/></g><g id="g66" transform="translate(619.29 200.66)"><path id="path68" d="m0 0c5.386 22.464 13.402 32.234 19.843 35.944 11.657 6.076 24.768-23.767 30.103-42.417 5.989-20.951 6.141-39.362 0.329-41.117-4.186-1.262-10.332 6.481-15.678 18.757-2.063-13.613-6.036-22.579-10.473-21.92-4.238 0.632-7.807 9.896-9.567 23.084-4.809-12.243-10.323-19.566-14.222-17.741-5.568 2.613-5.722 22.943-0.335 45.41" fill="#ef8935"/></g><g id="g70" transform="translate(479.88 199.39)"><path id="path72" d="m0 0c-4.621 22.635-12.301 32.669-18.615 36.597-11.443 6.466-25.557-22.917-31.522-41.373-6.696-20.739-7.471-39.133-1.722-41.083 4.142-1.405 10.545 6.126 16.306 18.215 1.599-13.675 5.264-22.771 9.724-22.263 4.256 0.49 8.138 9.629 10.344 22.748 4.39-12.401 9.653-19.907 13.61-18.213 5.654 2.422 6.499 22.735 1.875 45.372" fill="#ef8935"/></g><g id="g74" transform="translate(549.42 181.44)"><path id="path76" d="m0 0h-0.129c-5.775 0-10.241 3.555-11.38 9.181-0.221 1.094 0.337 2.107 1.25 2.375 0.908 0.259 1.829-0.451 2.051-1.544 0.921-4.559 4.943-6.234 8.109-6.266 3.583-0.019 7.824 1.902 8.769 6.265 0.238 1.09 1.166 1.735 2.074 1.452s1.451-1.223 1.214-2.313c-1.401-6.454-6.993-9.15-11.958-9.15" fill="#e97f19"/></g><g id="g78" transform="translate(513.19 181.44)"><path id="path80" d="m0 0h-0.129c-5.775 0-10.242 3.555-11.38 9.181-0.223 1.094 0.337 2.107 1.249 2.375 0.909 0.259 1.829-0.451 2.05-1.544 0.923-4.559 4.946-6.234 8.109-6.266 3.585-0.019 7.825 1.902 8.772 6.265 0.237 1.09 1.163 1.735 2.073 1.452 0.906-0.283 1.451-1.223 1.214-2.313-1.401-6.454-6.993-9.15-11.958-9.15" fill="#e97f19"/></g><g id="g82" transform="translate(585.65 181.44)"><path id="path84" d="m0 0h-0.129c-5.774 0-10.241 3.555-11.38 9.181-0.221 1.094 0.337 2.107 1.25 2.375 0.91 0.259 1.829-0.451 2.05-1.544 0.923-4.559 4.944-6.234 8.11-6.266 3.583-0.019 7.826 1.902 8.771 6.265 0.236 1.09 1.164 1.735 2.072 1.452s1.451-1.223 1.215-2.313c-1.401-6.454-6.992-9.15-11.959-9.15" fill="#e97f19"/></g><g id="g86" transform="translate(566.97 152.44)"><path id="path88" d="m0 0h-0.129c-5.773 0-10.24 3.787-11.378 9.414-0.223 1.096 0.335 2.223 1.248 2.49 0.91 0.261 1.829-0.392 2.051-1.486 0.921-4.557 4.944-6.202 8.109-6.235 3.583-0.018 7.826 1.916 8.771 6.278 0.236 1.091 1.164 1.742 2.072 1.46 0.908-0.283 1.451-1.452 1.216-2.542-1.403-6.453-6.995-9.379-11.96-9.379" fill="#e97f19"/></g><g id="g90" transform="translate(531.87 152.44)"><path id="path92" d="m0 0h-0.127c-5.775 0-10.243 3.787-11.382 9.414-0.221 1.096 0.339 2.223 1.25 2.49 0.91 0.261 1.829-0.392 2.052-1.486 0.921-4.557 4.944-6.202 8.108-6.235 3.585-0.018 7.826 1.916 8.771 6.278 0.238 1.091 1.164 1.742 2.073 1.46 0.907-0.283 1.452-1.452 1.214-2.542-1.401-6.453-6.992-9.379-11.959-9.379" fill="#e97f19"/></g><g id="g94" transform="translate(862.03 114.46)"><path id="path96" d="m0 0-2.835 2.699 3.231 31.365c0.769 7.464-0.327 13.653-2.46 13.809l-0.104 0.011c-2.128 0.157-4.479-5.771-5.247-13.23l-3.344-32.435-2.31-1.337c-7.392-4.273-12.391-8.921-11.165-10.377l0.06-0.074c1.062-1.262 6.431 0.284 12.647 3.492-0.257-6.153 0.813-10.921 2.669-10.978l0.105-0.002c1.9-0.058 3.969 4.588 4.942 10.889 5.232-4.541 10.175-7.262 11.593-6.23l0.076 0.055c1.606 1.164-1.908 6.691-7.858 12.343" fill="#ff931e"/></g><g id="g98" transform="translate(922.15 115.71)"><path id="path100" d="m0 0-2.283 1.382-2.717 32.198c-0.632 7.477-2.853 13.192-4.983 13.052l-0.11-0.005c-2.127-0.142-3.364-5.995-2.735-13.475l2.63-31.145-2.887-2.646c-6.052-5.539-9.673-10.998-8.087-12.193l0.079-0.063c1.401-1.05 6.389 1.576 11.701 6.016 0.846-6.375 2.836-11.115 4.752-11.008l0.097 0.037c1.852 0.106 3.014 4.786 2.872 10.92 6.154-3.321 11.496-4.966 12.576-3.728l0.065 0.076c1.255 1.432-3.656 6.178-10.97 10.582" fill="#ff931e"/></g><g id="g102" transform="translate(979.96 359.8)"><path id="path104" d="m0 0c-5.847 4.871-32.151-6.818-32.151-6.818s-30.2 15.588-65.273 15.588c-35.076 0-59.432-15.588-59.432-15.588s-30.201 14.614-36.046 9.743c-5.844-4.87 5.886-45.236 5.845-60.406-0.125-49.16-37.02-171.47 94.503-172.44 131.52-0.974 91.376 123.88 89.63 172.44-0.515 14.38 8.77 52.607 2.927 57.48" fill="#2faea4"/></g><g id="g106" transform="translate(792.9 302.32)"><path id="path108" d="m0 0c0.001 0.385-0.01 0.799-0.024 1.217 8.009 16.246 24.726 27.425 44.06 27.425 22.867 0 42.081-15.627 47.544-36.786 5.464 21.159 24.677 36.786 47.544 36.786 20.173 0 37.499-12.173 45.052-29.57 0.36-8.025 1.689-18.019 3.104-29.132-4.466-22.52-24.325-39.504-48.156-39.504-22.867 0-42.08 15.633-47.544 36.792-5.463-21.159-24.677-36.792-47.544-36.792-21.888 0-40.421 14.33-46.762 34.114 1.307 13.619 2.716 25.916 2.74 35.45" fill="#309292"/></g><g id="g110" transform="translate(883.02 225.36)"><path id="path112" d="m0 0c41.701 0 75.506-32.933 75.506-73.553 0-0.343-0.022-0.676-0.029-1.018-14.683-13.02-37.166-21.155-71.091-20.903-40.415 0.295-64.91 12.064-79.474 29.632 3.961 37.001 36.066 65.842 75.088 65.842" fill="#309292"/></g><g id="g114" transform="translate(900.07 287.71)"><path id="path116" d="m0 0c0-19.371 15.703-35.074 35.074-35.074s35.074 15.703 35.074 35.074-15.703 35.074-35.074 35.074-35.074-15.703-35.074-35.074" fill="#fff"/></g><g id="g118" transform="translate(906.11 285.76)"><path id="path120" d="m0 0c0-10.656 8.636-19.29 19.29-19.29 10.655 0 19.291 8.634 19.291 19.29 0 10.651-8.636 19.29-19.291 19.29-10.654 0-19.29-8.639-19.29-19.29"/></g><g id="g122" transform="translate(932.61 292.58)"><path id="path124" d="m0 0c0-1.935 1.57-3.506 3.507-3.506 1.936 0 3.505 1.571 3.505 3.506 0 1.936-1.569 3.507-3.505 3.507-1.937 0-3.507-1.571-3.507-3.507" fill="#fff"/></g><g id="g126" transform="translate(798.75 287.71)"><path id="path128" d="m0 0c0-19.371 15.703-35.074 35.075-35.074 19.369 0 35.073 15.703 35.073 35.074s-15.704 35.074-35.073 35.074c-19.372 0-35.075-15.703-35.075-35.074" fill="#fff"/></g><g id="g130" transform="translate(804.79 285.76)"><path id="path132" d="m0 0c0-10.656 8.635-19.29 19.29-19.29s19.291 8.634 19.291 19.29c0 10.651-8.636 19.29-19.291 19.29s-19.29-8.639-19.29-19.29"/></g><g id="g134" transform="translate(831.29 292.58)"><path id="path136" d="m0 0c0-1.935 1.571-3.506 3.509-3.506 1.936 0 3.506 1.571 3.506 3.506 0 1.936-1.57 3.507-3.506 3.507-1.938 0-3.509-1.571-3.509-3.507" fill="#fff"/></g><g id="g138" transform="translate(872.79 264.95)"><path id="path140" d="m0 0c8.732 10.237 22.52 3.838 23.438 0 0.918-3.839-12.695-23.034-12.695-23.034s-10.686 19.195-10.743 23.034" fill="#f99525"/></g><g id="g142" transform="translate(958.34 200.86)"><path id="path144" d="m0 0c5.386 22.464 13.402 32.234 19.843 35.944 11.657 6.076 24.768-23.767 30.103-42.417 5.989-20.951 6.141-39.362 0.329-41.117-4.186-1.262-10.332 6.481-15.678 18.757-2.063-13.613-6.036-22.579-10.473-21.92-4.238 0.632-7.807 9.896-9.567 23.084-4.809-12.243-10.323-19.566-14.222-17.741-5.568 2.613-5.722 22.943-0.335 45.41" fill="#003e5f"/></g><g id="g146" transform="translate(815.92 199.59)"><path id="path148" d="m0 0c-4.621 22.635-12.301 32.669-18.615 36.597-11.443 6.466-25.557-22.917-31.522-41.373-6.696-20.739-7.471-39.133-1.723-41.083 4.143-1.405 10.546 6.126 16.306 18.215 1.6-13.675 5.265-22.771 9.725-22.263 4.256 0.49 8.138 9.629 10.344 22.748 4.39-12.401 9.653-19.907 13.61-18.213 5.654 2.422 6.499 22.735 1.875 45.372" fill="#003e5f"/></g><g id="g150" transform="translate(884.95 181.44)"><path id="path152" d="m0 0h-0.129c-5.775 0-10.241 3.555-11.38 9.181-0.221 1.094 0.337 2.107 1.25 2.375 0.908 0.259 1.829-0.451 2.051-1.544 0.921-4.559 4.944-6.234 8.109-6.266 3.583-0.019 7.824 1.902 8.77 6.265 0.237 1.09 1.165 1.735 2.073 1.452s1.451-1.223 1.214-2.313c-1.401-6.454-6.993-9.15-11.958-9.15" fill="#b6f1e7"/></g><g id="g154" transform="translate(848.72 181.44)"><path id="path156" d="m0 0h-0.129c-5.775 0-10.242 3.555-11.38 9.181-0.223 1.094 0.337 2.107 1.249 2.375 0.909 0.259 1.829-0.451 2.05-1.544 0.923-4.559 4.946-6.234 8.109-6.266 3.585-0.019 7.824 1.902 8.772 6.265 0.237 1.09 1.163 1.735 2.073 1.452 0.906-0.283 1.451-1.223 1.214-2.313-1.401-6.454-6.993-9.15-11.958-9.15" fill="#b6f1e7"/></g><g id="g158" transform="translate(921.18 181.44)"><path id="path160" d="m0 0h-0.129c-5.773 0-10.241 3.555-11.38 9.181-0.221 1.094 0.337 2.107 1.25 2.375 0.91 0.259 1.829-0.451 2.051-1.544 0.922-4.559 4.944-6.234 8.109-6.266 3.583-0.019 7.826 1.902 8.771 6.265 0.236 1.09 1.164 1.735 2.072 1.452s1.451-1.223 1.215-2.313c-1.401-6.454-6.992-9.15-11.959-9.15" fill="#b6f1e7"/></g><g id="g162" transform="translate(902.5 152.44)"><path id="path164" d="m0 0h-0.129c-5.773 0-10.241 3.787-11.378 9.414-0.223 1.096 0.335 2.223 1.248 2.49 0.91 0.261 1.829-0.392 2.051-1.486 0.921-4.557 4.944-6.202 8.109-6.235 3.583-0.018 7.826 1.916 8.771 6.278 0.236 1.091 1.164 1.742 2.072 1.46 0.908-0.283 1.451-1.452 1.215-2.542-1.402-6.453-6.994-9.379-11.959-9.379" fill="#b6f1e7"/></g><g id="g166" transform="translate(867.4 152.44)"><path id="path168" d="m0 0h-0.127c-5.775 0-10.243 3.787-11.382 9.414-0.221 1.096 0.339 2.223 1.25 2.49 0.91 0.261 1.829-0.392 2.052-1.486 0.921-4.557 4.944-6.202 8.108-6.235 3.585-0.018 7.826 1.916 8.771 6.278 0.238 1.091 1.164 1.742 2.073 1.46 0.907-0.283 1.452-1.452 1.214-2.542-1.401-6.453-6.992-9.379-11.959-9.379" fill="#b6f1e7"/></g><g id="g170" transform="translate(527.52 456.64)"><path id="path172" d="m0 0-2.835 2.699 3.231 31.366c0.769 7.463-0.327 13.652-2.461 13.808l-0.103 0.011c-2.128 0.157-4.48-5.771-5.247-13.23l-3.344-32.435-2.31-1.337c-7.392-4.273-12.391-8.921-11.165-10.377l0.06-0.074c1.062-1.262 6.431 0.284 12.647 3.492-0.257-6.153 0.813-10.921 2.669-10.978l0.105-0.002c1.899-0.058 3.969 4.588 4.941 10.889 5.233-4.541 10.176-7.262 11.594-6.23l0.076 0.055c1.606 1.164-1.908 6.691-7.858 12.343" fill="#ff931e"/></g><g id="g174" transform="translate(587.64 457.89)"><path id="path176" d="m0 0-2.283 1.382-2.717 32.198c-0.632 7.477-2.852 13.192-4.983 13.052l-0.11-0.005c-2.127-0.142-3.364-5.995-2.735-13.475l2.63-31.145-2.887-2.646c-6.052-5.539-9.673-10.998-8.087-12.193l0.079-0.063c1.401-1.05 6.389 1.576 11.701 6.016 0.846-6.375 2.836-11.115 4.752-11.008l0.097 0.037c1.852 0.106 3.014 4.785 2.872 10.92 6.154-3.321 11.496-4.967 12.576-3.728l0.065 0.076c1.255 1.432-3.655 6.178-10.97 10.582" fill="#ff931e"/></g><g id="g178" transform="translate(454.22 701.98)"><path id="path180" d="m0 0c5.847 4.872 32.151-6.819 32.151-6.819s30.203 15.589 65.273 15.589c35.074 0 59.431-15.589 59.431-15.589s30.202 14.614 36.047 9.743c5.845-4.872-5.885-45.233-5.845-60.406 0.126-49.159 37.02-171.47-94.503-172.44-131.53-0.98-91.379 123.88-89.634 172.44 0.519 14.379-8.767 52.609-2.923 57.48" fill="#a273d8"/></g><g id="g182" transform="translate(641.28 644.5)"><path id="path184" d="m0 0c-0.003 0.387 0.01 0.801 0.024 1.218-8.008 16.245-24.725 27.424-44.06 27.424-22.864 0-42.078-15.627-47.544-36.786-5.463 21.159-24.678 36.786-47.543 36.786-20.174 0-37.499-12.171-45.053-29.567-0.36-8.028-1.689-18.023-3.105-29.135 4.468-22.52 24.329-39.501 48.158-39.501 22.865 0 42.08 15.63 47.543 36.789 5.466-21.159 24.68-36.789 47.544-36.789 21.888 0 40.424 14.326 46.762 34.111-1.297 13.619-2.705 25.917-2.729 35.45" fill="#bc94dd"/></g><g id="g186" transform="translate(551.16 567.53)"><path id="path188" d="m0 0c-41.699 0-75.503-32.933-75.503-73.556 0-0.34 0.021-0.676 0.026-1.013 14.685-13.023 37.167-21.157 71.093-20.908 40.416 0.3 64.909 12.067 79.473 29.637-3.961 36.998-36.063 65.84-75.089 65.84" fill="#bc94dd"/></g><g id="g190" transform="translate(534.11 629.88)"><path id="path192" d="m0 0c0-19.369-15.704-35.072-35.074-35.072-19.371 0-35.074 15.703-35.074 35.072 0 19.37 15.703 35.073 35.074 35.073 19.37 0 35.074-15.703 35.074-35.073" fill="#fff"/></g><g id="g194" transform="translate(518.58 639.99)"><path id="path196" d="m0 0c0-10.656-8.636-19.29-19.29-19.29s-19.289 8.634-19.289 19.29c0 10.651 8.635 19.29 19.289 19.29s19.29-8.639 19.29-19.29"/></g><g id="g198" transform="translate(502.8 644.48)"><path id="path200" d="m0 0c0-1.937-1.57-3.506-3.507-3.506s-3.506 1.569-3.506 3.506c0 1.938 1.569 3.509 3.506 3.509s3.507-1.571 3.507-3.509" fill="#fff"/></g><g id="g202" transform="translate(635.43 629.88)"><path id="path204" d="m0 0c0-19.369-15.703-35.072-35.074-35.072-19.369 0-35.071 15.703-35.071 35.072 0 19.37 15.702 35.073 35.071 35.073 19.371 0 35.074-15.703 35.074-35.073" fill="#fff"/></g><g id="g206" transform="translate(619.9 639.99)"><path id="path208" d="m0 0c0-10.656-8.634-19.29-19.29-19.29-10.653 0-19.291 8.634-19.291 19.29 0 10.651 8.638 19.29 19.291 19.29 10.656 0 19.29-8.639 19.29-19.29"/></g><g id="g210" transform="translate(604.12 644.48)"><path id="path212" d="m0 0c0-1.937-1.57-3.506-3.507-3.506-1.938 0-3.509 1.569-3.509 3.506 0 1.938 1.571 3.509 3.509 3.509 1.937 0 3.507-1.571 3.507-3.509" fill="#fff"/></g><g id="g214" transform="translate(561.39 607.13)"><path id="path216" d="m0 0c-8.731 10.24-22.519 3.839-23.436 0-0.92-3.838 12.696-23.033 12.696-23.033s10.684 19.195 10.74 23.033" fill="#f99525"/></g><g id="g218" transform="translate(619.94 539.6)"><path id="path220" d="m0 0c5.386 22.464 13.402 32.234 19.843 35.944 11.657 6.076 24.768-23.767 30.103-42.417 5.989-20.952 6.141-39.362 0.329-41.117-4.186-1.262-10.332 6.481-15.678 18.757-2.063-13.613-6.036-22.579-10.473-21.92-4.238 0.632-7.807 9.896-9.567 23.084-4.809-12.243-10.323-19.566-14.222-17.741-5.568 2.613-5.722 22.943-0.335 45.41" fill="#662d91"/></g><g id="g222" transform="translate(480.53 538.32)"><path id="path224" d="m0 0c-4.621 22.635-12.301 32.669-18.615 36.597-11.443 6.466-25.557-22.917-31.522-41.373-6.696-20.739-7.471-39.133-1.723-41.083 4.143-1.405 10.546 6.126 16.307 18.215 1.599-13.675 5.264-22.771 9.724-22.263 4.256 0.49 8.138 9.629 10.344 22.748 4.39-12.401 9.653-19.907 13.61-18.213 5.654 2.422 6.499 22.735 1.875 45.372" fill="#662d91"/></g><g id="g226" transform="translate(549.42 523.33)"><path id="path228" d="m0 0h-0.129c-5.775 0-10.241 3.555-11.38 9.181-0.221 1.094 0.337 2.107 1.25 2.375 0.908 0.259 1.829-0.451 2.051-1.544 0.921-4.559 4.943-6.234 8.109-6.266 3.583-0.019 7.824 1.901 8.769 6.265 0.238 1.09 1.166 1.735 2.074 1.452s1.451-1.223 1.214-2.313c-1.401-6.454-6.993-9.15-11.958-9.15" fill="#d3b7ea"/></g><g id="g230" transform="translate(513.19 523.33)"><path id="path232" d="m0 0h-0.129c-5.775 0-10.242 3.555-11.38 9.181-0.223 1.094 0.337 2.107 1.249 2.375 0.909 0.259 1.829-0.451 2.05-1.544 0.923-4.559 4.946-6.234 8.109-6.266 3.585-0.019 7.825 1.901 8.772 6.265 0.237 1.09 1.163 1.735 2.073 1.452 0.906-0.283 1.451-1.223 1.214-2.313-1.401-6.454-6.993-9.15-11.958-9.15" fill="#d3b7ea"/></g><g id="g234" transform="translate(585.65 523.33)"><path id="path236" d="m0 0h-0.129c-5.774 0-10.241 3.555-11.38 9.181-0.221 1.094 0.337 2.107 1.25 2.375 0.91 0.259 1.829-0.451 2.05-1.544 0.923-4.559 4.944-6.234 8.11-6.266 3.583-0.019 7.826 1.901 8.771 6.265 0.236 1.09 1.164 1.735 2.072 1.452s1.451-1.223 1.215-2.313c-1.401-6.454-6.992-9.15-11.959-9.15" fill="#d3b7ea"/></g><g id="g238" transform="translate(566.97 494.33)"><path id="path240" d="m0 0h-0.129c-5.773 0-10.24 3.787-11.378 9.414-0.223 1.096 0.335 2.223 1.248 2.49 0.91 0.261 1.829-0.392 2.051-1.486 0.921-4.557 4.944-6.202 8.109-6.235 3.583-0.018 7.826 1.916 8.771 6.278 0.236 1.091 1.164 1.742 2.072 1.46 0.908-0.283 1.451-1.452 1.216-2.542-1.403-6.453-6.995-9.379-11.96-9.379" fill="#d3b7ea"/></g><g id="g242" transform="translate(531.87 494.33)"><path id="path244" d="m0 0h-0.127c-5.775 0-10.243 3.787-11.382 9.414-0.221 1.096 0.339 2.223 1.25 2.49 0.91 0.261 1.829-0.392 2.052-1.486 0.921-4.557 4.944-6.202 8.108-6.235 3.585-0.018 7.826 1.916 8.771 6.278 0.238 1.091 1.164 1.742 2.073 1.46 0.907-0.283 1.452-1.452 1.214-2.542-1.401-6.453-6.992-9.379-11.959-9.379" fill="#d3b7ea"/></g><g id="g246" transform="translate(123.77 701.98)"><path id="path248" d="m0 0c5.847 4.872 32.151-6.817 32.151-6.817s30.2 15.587 65.274 15.587c35.073 0 59.43-15.587 59.43-15.587s30.203 14.614 36.047 9.743-5.882-45.235-5.844-60.406c0.123-49.159 37.019-171.47-94.504-172.44-131.54-0.98-91.391 123.88-89.643 172.44 0.516 14.381-8.768 52.609-2.923 57.48" fill="#4d4d4d"/></g><g id="g250" transform="translate(193.79 456.64)"><path id="path252" d="m0 0-2.835 2.699 3.231 31.366c0.769 7.463-0.327 13.652-2.46 13.808l-0.104 0.011c-2.128 0.157-4.479-5.771-5.247-13.23l-3.344-32.435-2.31-1.337c-7.392-4.273-12.391-8.921-11.165-10.377l0.06-0.074c1.062-1.262 6.431 0.284 12.647 3.492-0.257-6.153 0.813-10.921 2.669-10.978l0.105-0.002c1.899-0.058 3.969 4.588 4.942 10.889 5.232-4.541 10.175-7.262 11.593-6.23l0.076 0.055c1.606 1.164-1.908 6.691-7.858 12.343" fill="#ff931e"/></g><g id="g254" transform="translate(253.91 457.89)"><path id="path256" d="m0 0-2.283 1.382-2.717 32.198c-0.632 7.477-2.852 13.192-4.983 13.052l-0.11-0.005c-2.127-0.142-3.364-5.995-2.735-13.475l2.63-31.145-2.887-2.646c-6.052-5.539-9.673-10.998-8.087-12.193l0.079-0.063c1.401-1.05 6.389 1.576 11.701 6.016 0.846-6.375 2.836-11.115 4.752-11.008l0.097 0.037c1.852 0.106 3.014 4.785 2.872 10.92 6.154-3.321 11.496-4.967 12.576-3.728l0.065 0.076c1.255 1.432-3.656 6.178-10.97 10.582" fill="#ff931e"/></g><g id="g258" transform="translate(311.22 644.5)"><path id="path260" d="m0 0c-0.003 0.387 0.01 0.801 0.024 1.218-8.008 16.245-24.725 27.424-44.06 27.424-22.864 0-42.078-15.627-47.544-36.786-5.463 21.159-24.678 36.786-47.543 36.786-20.174 0-37.499-12.171-45.053-29.567-0.36-8.028-1.689-18.023-3.105-29.135 4.468-22.52 24.329-39.501 48.158-39.501 22.865 0 42.08 15.63 47.543 36.789 5.466-21.159 24.68-36.789 47.544-36.789 21.888 0 40.424 14.326 46.762 34.111-1.297 13.619-2.705 25.917-2.729 35.45" fill="#666"/></g><g id="g262" transform="translate(220.71 567.53)"><path id="path264" d="m0 0c-41.7 0-75.503-32.933-75.503-73.553 0-0.343 0.021-0.676 0.024-1.018 14.687-13.021 37.168-21.155 71.094-20.904 40.416 0.296 64.911 12.065 79.474 29.633-3.961 37-36.066 65.842-75.089 65.842" fill="#666"/></g><g id="g266" transform="translate(203.66 629.89)"><path id="path268" d="m0 0c0-19.371-15.704-35.075-35.073-35.075-19.371 0-35.075 15.704-35.075 35.075 0 19.37 15.704 35.074 35.075 35.074 19.369 0 35.073-15.704 35.073-35.074" fill="#fff"/></g><g id="g270" transform="translate(177.35 638.26)"><path id="path272" d="m0 0c0-10.653-8.637-19.292-19.29-19.292-10.656 0-19.29 8.639-19.29 19.292s8.634 19.292 19.29 19.292c10.653 0 19.29-8.639 19.29-19.292"/></g><g id="g274" transform="translate(150.85 645.08)"><path id="path276" d="m0 0c0-1.936-1.57-3.508-3.507-3.508-1.934 0-3.505 1.572-3.505 3.508 0 1.937 1.571 3.507 3.505 3.507 1.937 0 3.507-1.57 3.507-3.507" fill="#fff"/></g><g id="g278" transform="translate(304.98 629.89)"><path id="path280" d="m0 0c0-19.371-15.702-35.075-35.073-35.075s-35.074 15.704-35.074 35.075c0 19.37 15.703 35.074 35.074 35.074s35.073-15.704 35.073-35.074" fill="#fff"/></g><g id="g282" transform="translate(278.67 638.26)"><path id="path284" d="m0 0c0-10.653-8.634-19.292-19.29-19.292-10.653 0-19.29 8.639-19.29 19.292s8.637 19.292 19.29 19.292c10.656 0 19.29-8.639 19.29-19.292"/></g><g id="g286" transform="translate(252.17 645.08)"><path id="path288" d="m0 0c0-1.936-1.57-3.508-3.507-3.508s-3.507 1.572-3.507 3.508c0 1.937 1.57 3.507 3.507 3.507s3.507-1.57 3.507-3.507" fill="#fff"/></g><g id="g290" transform="translate(230.94 607.13)"><path id="path292" d="m0 0c-8.731 10.237-22.519 3.839-23.437 0-0.919-3.839 12.696-23.035 12.696-23.035s10.685 19.196 10.741 23.035" fill="#f99525"/></g><g id="g294" transform="translate(286.93 542.62)"><path id="path296" d="m0 0c5.386 22.464 13.402 32.234 19.843 35.944 11.657 6.076 24.768-23.767 30.103-42.417 5.99-20.952 6.141-39.362 0.329-41.117-4.186-1.262-10.332 6.48-15.678 18.757-2.063-13.613-6.036-22.579-10.473-21.92-4.238 0.632-7.807 9.896-9.567 23.084-4.809-12.243-10.323-19.566-14.222-17.741-5.568 2.613-5.722 22.943-0.335 45.41"/></g><g id="g298" transform="translate(147.52 541.35)"><path id="path300" d="m0 0c-4.621 22.635-12.301 32.669-18.615 36.597-11.443 6.466-25.557-22.917-31.522-41.373-6.696-20.739-7.471-39.133-1.723-41.083 4.143-1.405 10.546 6.126 16.307 18.215 1.599-13.675 5.264-22.771 9.724-22.263 4.256 0.49 8.138 9.629 10.344 22.748 4.391-12.401 9.653-19.907 13.61-18.213 5.654 2.422 6.499 22.735 1.875 45.372"/></g><g id="g302" transform="translate(220.27 523.33)"><path id="path304" d="m0 0h-0.129c-5.775 0-10.241 3.555-11.38 9.181-0.221 1.094 0.337 2.107 1.25 2.375 0.908 0.259 1.829-0.45 2.051-1.544 0.921-4.559 4.944-6.234 8.109-6.266 3.583-0.018 7.824 1.902 8.77 6.265 0.237 1.09 1.165 1.735 2.073 1.452s1.451-1.223 1.214-2.313c-1.401-6.454-6.993-9.15-11.958-9.15" fill="#f2f2f2"/></g><g id="g306" transform="translate(184.05 523.33)"><path id="path308" d="m0 0h-0.129c-5.775 0-10.242 3.555-11.38 9.181-0.223 1.094 0.337 2.107 1.249 2.375 0.909 0.259 1.829-0.45 2.05-1.544 0.923-4.559 4.946-6.234 8.109-6.266 3.585-0.018 7.824 1.902 8.772 6.265 0.237 1.09 1.163 1.735 2.073 1.452 0.906-0.283 1.451-1.223 1.214-2.313-1.401-6.454-6.993-9.15-11.958-9.15" fill="#f2f2f2"/></g><g id="g310" transform="translate(256.5 523.33)"><path id="path312" d="m0 0h-0.129c-5.773 0-10.241 3.555-11.38 9.181-0.221 1.094 0.337 2.107 1.25 2.375 0.91 0.259 1.829-0.45 2.051-1.544 0.922-4.559 4.943-6.234 8.109-6.266 3.583-0.018 7.826 1.902 8.771 6.265 0.236 1.09 1.164 1.735 2.072 1.452s1.451-1.223 1.215-2.313c-1.401-6.454-6.992-9.15-11.959-9.15" fill="#f2f2f2"/></g><g id="g314" transform="translate(237.82 494.33)"><path id="path316" d="m0 0h-0.129c-5.773 0-10.241 3.787-11.378 9.414-0.223 1.096 0.335 2.223 1.248 2.49 0.91 0.261 1.829-0.392 2.051-1.486 0.921-4.557 4.944-6.202 8.109-6.235 3.583-0.018 7.826 1.916 8.771 6.278 0.236 1.091 1.164 1.742 2.072 1.46 0.908-0.283 1.451-1.452 1.216-2.542-1.403-6.453-6.995-9.379-11.96-9.379" fill="#f2f2f2"/></g><g id="g318" transform="translate(202.72 494.33)"><path id="path320" d="m0 0h-0.127c-5.775 0-10.242 3.787-11.382 9.414-0.221 1.096 0.339 2.223 1.25 2.49 0.91 0.261 1.829-0.392 2.052-1.486 0.921-4.557 4.944-6.202 8.108-6.235 3.585-0.018 7.826 1.916 8.771 6.278 0.238 1.091 1.164 1.742 2.073 1.46 0.907-0.283 1.452-1.452 1.214-2.542-1.401-6.453-6.992-9.379-11.959-9.379" fill="#f2f2f2"/></g><g id="g322" transform="translate(862.03 456.64)"><path id="path324" d="m0 0-2.835 2.699 3.231 31.366c0.769 7.463-0.327 13.652-2.46 13.808l-0.104 0.011c-2.128 0.157-4.479-5.771-5.247-13.23l-3.344-32.435-2.31-1.337c-7.392-4.273-12.391-8.921-11.165-10.377l0.06-0.074c1.062-1.262 6.431 0.284 12.647 3.492-0.257-6.153 0.813-10.921 2.669-10.978l0.105-0.002c1.9-0.058 3.969 4.588 4.942 10.889 5.232-4.541 10.175-7.262 11.593-6.23l0.076 0.055c1.606 1.164-1.908 6.691-7.858 12.343" fill="#ff931e"/></g><g id="g326" transform="translate(922.15 457.89)"><path id="path328" d="m0 0-2.283 1.382-2.717 32.198c-0.632 7.477-2.853 13.192-4.983 13.052l-0.11-0.005c-2.127-0.142-3.364-5.995-2.735-13.475l2.63-31.145-2.887-2.646c-6.052-5.539-9.673-10.998-8.087-12.193l0.079-0.063c1.401-1.05 6.389 1.576 11.701 6.016 0.846-6.375 2.836-11.115 4.752-11.008l0.097 0.037c1.852 0.106 3.014 4.785 2.872 10.92 6.154-3.321 11.496-4.967 12.576-3.728l0.065 0.076c1.255 1.432-3.656 6.178-10.97 10.582" fill="#ff931e"/></g><g id="g330" transform="translate(787.34 701.98)"><path id="path332" d="m0 0c5.847 4.871 32.151-6.818 32.151-6.818s30.2 15.587 65.273 15.587c35.074 0 59.431-15.587 59.431-15.587s30.199 14.614 36.046 9.743c5.845-4.872-5.885-45.235-5.847-60.403 0.126-49.162 37.023-171.47-94.501-172.44-131.53-0.97-91.384 123.88-89.636 172.44 0.516 14.381-8.77 52.608-2.923 57.48" fill="#5f3713"/></g><g id="g334" transform="translate(974.4 644.5)"><path id="path336" d="m0 0c0 0.383 0.013 0.799 0.027 1.217-8.012 16.244-24.727 27.423-44.06 27.423-22.865 0-42.081-15.629-47.544-36.784-5.467 21.155-24.68 36.784-47.545 36.784-20.175 0-37.501-12.168-45.055-29.57-0.359-8.025-1.686-18.019-3.101-29.134 4.467-22.521 24.324-39.499 48.156-39.499 22.865 0 42.078 15.628 47.545 36.787 5.463-21.159 24.679-36.787 47.544-36.787 21.885 0 40.423 14.326 46.759 34.108-1.299 13.62-2.704 25.917-2.731 35.455" fill="#fcd2ac"/></g><g id="g338" transform="translate(884.28 567.54)"><path id="path340" d="m0 0c-41.698 0-75.504-32.931-75.504-73.556 0-0.34 0.023-0.676 0.024-1.013 14.689-13.022 37.17-21.157 71.095-20.907 40.416 0.299 64.91 12.066 79.475 29.636-3.96 36.999-36.067 65.84-75.09 65.84" fill="#fcd2ac"/></g><g id="g342" transform="translate(894.51 607.13)"><path id="path344" d="m0 0c-8.731 10.237-22.518 3.841-23.438 0-0.92-3.839 12.694-23.036 12.694-23.036s10.687 19.197 10.744 23.036" fill="#f99525"/></g><g id="g346" transform="translate(866.93 631.83)"><path id="path348" d="m0 0c0-19.371-15.703-35.071-35.074-35.071-19.37 0-35.071 15.7-35.071 35.071 0 19.37 15.701 35.074 35.071 35.074 19.371 0 35.074-15.704 35.074-35.074" fill="#fff"/></g><g id="g350" transform="translate(851.15 631.89)"><path id="path352" d="m0 0c0-10.653-8.638-19.29-19.292-19.29-10.653 0-19.289 8.637-19.289 19.29 0 10.654 8.636 19.29 19.289 19.29 10.654 0 19.292-8.636 19.292-19.29"/></g><g id="g354" transform="translate(824.65 638.71)"><path id="path356" d="m0 0c0-1.937-1.57-3.509-3.507-3.509s-3.506 1.572-3.506 3.509c0 1.938 1.569 3.508 3.506 3.508s3.507-1.57 3.507-3.508" fill="#fff"/></g><g id="g358" transform="translate(933.31 596.76)"><path id="path360" d="m0 0c-19.371 0-35.071 15.703-35.071 35.074 0 19.37 15.7 35.071 35.071 35.071 19.37 0 35.074-15.701 35.074-35.071 0-19.371-15.704-35.074-35.074-35.074" fill="#fff"/></g><g id="g362" transform="translate(933.37 612.54)"><path id="path364" d="m0 0c-10.653 0-19.29 8.638-19.29 19.292 0 10.653 8.637 19.289 19.29 19.289 10.654 0 19.29-8.636 19.29-19.289 0-10.654-8.636-19.292-19.29-19.292"/></g><g id="g366" transform="translate(940.19 639.04)"><path id="path368" d="m0 0c-1.937 0-3.509 1.57-3.509 3.507s1.572 3.507 3.509 3.507c1.938 0 3.508-1.57 3.508-3.507s-1.57-3.507-3.508-3.507" fill="#fff"/></g><g id="g370" transform="translate(949.42 542.42)"><path id="path372" d="m0 0c5.386 22.464 13.402 32.234 19.843 35.944 11.657 6.076 24.768-23.767 30.103-42.417 5.989-20.952 6.141-39.362 0.329-41.117-4.186-1.262-10.332 6.481-15.678 18.757-2.063-13.613-6.036-22.579-10.473-21.92-4.238 0.632-7.807 9.896-9.567 23.084-4.809-12.243-10.323-19.566-14.222-17.741-5.568 2.613-5.722 22.943-0.335 45.41" fill="#8c6239"/></g><g id="g374" transform="translate(810 541.14)"><path id="path376" d="m0 0c-4.621 22.635-12.301 32.669-18.615 36.597-11.443 6.466-25.557-22.917-31.522-41.373-6.696-20.739-7.471-39.133-1.723-41.083 4.143-1.405 10.546 6.126 16.307 18.215 1.599-13.675 5.264-22.771 9.724-22.263 4.256 0.49 8.138 9.629 10.344 22.748 4.391-12.401 9.653-19.907 13.61-18.213 5.654 2.422 6.499 22.735 1.875 45.372" fill="#8c6239"/></g><g id="g378" transform="translate(884.95 523.33)"><path id="path380" d="m0 0h-0.129c-5.775 0-10.241 3.555-11.38 9.181-0.221 1.094 0.337 2.107 1.25 2.375 0.908 0.259 1.829-0.451 2.051-1.544 0.921-4.559 4.944-6.234 8.109-6.266 3.583-0.019 7.824 1.901 8.77 6.265 0.237 1.09 1.165 1.735 2.073 1.452s1.451-1.223 1.214-2.313c-1.401-6.454-6.993-9.15-11.958-9.15" fill="#5f3713"/></g><g id="g382" transform="translate(848.72 523.33)"><path id="path384" d="m0 0h-0.129c-5.775 0-10.242 3.555-11.38 9.181-0.223 1.094 0.337 2.107 1.249 2.375 0.909 0.259 1.829-0.451 2.05-1.544 0.923-4.559 4.946-6.234 8.109-6.266 3.585-0.019 7.824 1.901 8.772 6.265 0.237 1.09 1.163 1.735 2.073 1.452 0.906-0.283 1.451-1.223 1.214-2.313-1.401-6.454-6.993-9.15-11.958-9.15" fill="#5f3713"/></g><g id="g386" transform="translate(921.18 523.33)"><path id="path388" d="m0 0h-0.129c-5.773 0-10.241 3.555-11.38 9.181-0.221 1.094 0.337 2.107 1.25 2.375 0.91 0.259 1.829-0.451 2.051-1.544 0.922-4.559 4.944-6.234 8.109-6.266 3.583-0.019 7.826 1.901 8.771 6.265 0.236 1.09 1.164 1.735 2.072 1.452s1.451-1.223 1.215-2.313c-1.401-6.454-6.992-9.15-11.959-9.15" fill="#5f3713"/></g><g id="g390" transform="translate(902.5 494.33)"><path id="path392" d="m0 0h-0.129c-5.773 0-10.241 3.787-11.378 9.414-0.223 1.096 0.335 2.223 1.248 2.49 0.91 0.261 1.829-0.392 2.051-1.486 0.921-4.557 4.944-6.202 8.109-6.235 3.583-0.018 7.826 1.916 8.771 6.278 0.236 1.091 1.164 1.742 2.072 1.46 0.908-0.283 1.451-1.452 1.215-2.542-1.402-6.453-6.994-9.379-11.959-9.379" fill="#5f3713"/></g><g id="g394" transform="translate(867.4 494.33)"><path id="path396" d="m0 0h-0.127c-5.775 0-10.243 3.787-11.382 9.414-0.221 1.096 0.339 2.223 1.25 2.49 0.91 0.261 1.829-0.392 2.052-1.486 0.921-4.557 4.944-6.202 8.108-6.235 3.585-0.018 7.826 1.916 8.771 6.278 0.238 1.091 1.164 1.742 2.073 1.46 0.907-0.283 1.452-1.452 1.214-2.542-1.401-6.453-6.992-9.379-11.959-9.379" fill="#5f3713"/></g><g id="g398" transform="translate(193.79 114.46)"><path id="path400" d="m0 0-2.835 2.699 3.231 31.365c0.769 7.464-0.327 13.653-2.46 13.809l-0.104 0.011c-2.128 0.157-4.479-5.771-5.247-13.23l-3.344-32.435-2.31-1.337c-7.392-4.273-12.391-8.921-11.165-10.377l0.06-0.074c1.062-1.262 6.431 0.284 12.647 3.492-0.257-6.153 0.813-10.921 2.669-10.978l0.105-0.002c1.899-0.058 3.969 4.588 4.942 10.889 5.232-4.541 10.175-7.262 11.593-6.23l0.076 0.055c1.606 1.164-1.908 6.691-7.858 12.343" fill="#ff931e"/></g><g id="g402" transform="translate(253.91 115.71)"><path id="path404" d="m0 0-2.283 1.382-2.717 32.198c-0.632 7.477-2.852 13.192-4.983 13.052l-0.11-0.005c-2.127-0.142-3.364-5.995-2.735-13.475l2.63-31.145-2.887-2.646c-6.052-5.539-9.673-10.998-8.087-12.193l0.079-0.063c1.401-1.05 6.389 1.576 11.701 6.016 0.846-6.375 2.836-11.115 4.752-11.008l0.097 0.037c1.852 0.106 3.014 4.786 2.872 10.92 6.154-3.321 11.496-4.966 12.576-3.728l0.065 0.076c1.255 1.432-3.656 6.178-10.97 10.582" fill="#ff931e"/></g><g id="g406" transform="translate(303.75 359.48)"><path id="path408" d="m0 0c-5.846 4.871-32.151-6.819-32.151-6.819s-30.2 15.589-65.274 15.589c-35.073 0-59.43-15.589-59.43-15.589s-30.2 14.614-36.045 9.742c-5.845-4.87 5.883-45.232 5.845-60.402-0.126-49.16-37.021-171.47 94.502-172.44 131.52-0.977 91.378 123.88 89.63 172.44-0.511 14.379 8.775 52.609 2.928 57.48" fill="#bad234"/></g><g id="g410" transform="translate(301 301.66)"><path id="path412" d="m0 0c0 0.385 0.013 0.799 0.024 1.217-8.009 16.242-24.725 27.425-44.061 27.425-22.862 0-42.077-15.631-47.541-36.787-5.466 21.156-24.681 36.787-47.545 36.787-20.174 0-37.5-12.173-45.053-29.569-0.36-8.028-1.687-18.02-3.105-29.136 4.47-22.521 24.327-39.5 48.158-39.5 22.864 0 42.079 15.627 47.545 36.788 5.464-21.161 24.679-36.788 47.541-36.788 21.889 0 40.426 14.329 46.763 34.108-1.298 13.621-2.705 25.917-2.729 35.455" fill="#8cc63f"/></g><g id="g414" transform="translate(215.49 224.7)"><path id="path416" d="m0 0c-41.697 0-75.503-32.933-75.503-73.558 0-0.337 0.023-0.674 0.025-1.014 14.688-13.02 37.17-21.156 71.094-20.905 40.417 0.3 64.909 12.068 79.474 29.636-3.959 36.998-36.066 65.841-75.09 65.841" fill="#f7f9b9"/></g><g id="g418" transform="translate(278.25 209.36)"><path id="path420" d="m0 0c5.386 22.464 13.402 32.234 19.843 35.944 11.657 6.076 24.768-23.767 30.103-42.417 5.989-20.951 6.141-39.362 0.329-41.117-4.186-1.262-10.332 6.481-15.678 18.757-2.063-13.613-6.036-22.579-10.473-21.92-4.238 0.632-7.807 9.896-9.567 23.084-4.809-12.243-10.323-19.566-14.222-17.741-5.568 2.613-5.722 22.943-0.335 45.41" fill="#8cc63f"/></g><g id="g422" transform="translate(138.84 208.09)"><path id="path424" d="m0 0c-4.621 22.634-12.301 32.669-18.615 36.597-11.443 6.466-25.557-22.917-31.522-41.373-6.696-20.739-7.471-39.133-1.723-41.083 4.143-1.405 10.546 6.126 16.307 18.215 1.599-13.675 5.264-22.771 9.724-22.263 4.256 0.49 8.138 9.629 10.344 22.748 4.39-12.401 9.653-19.907 13.61-18.213 5.654 2.422 6.499 22.735 1.875 45.372" fill="#8cc63f"/></g><g id="g426" transform="translate(209.66 181.44)"><path id="path428" d="m0 0h-0.129c-5.775 0-10.241 3.555-11.38 9.181-0.221 1.094 0.337 2.107 1.25 2.375 0.908 0.259 1.829-0.451 2.051-1.544 0.921-4.559 4.943-6.234 8.109-6.266 3.583-0.019 7.824 1.902 8.769 6.265 0.238 1.09 1.166 1.735 2.074 1.452s1.451-1.223 1.214-2.313c-1.401-6.454-6.993-9.15-11.958-9.15" fill="#7ac943"/></g><g id="g430" transform="translate(173.43 181.44)"><path id="path432" d="m0 0h-0.128c-5.776 0-10.243 3.555-11.381 9.181-0.223 1.094 0.337 2.107 1.249 2.375 0.909 0.259 1.829-0.451 2.05-1.544 0.923-4.559 4.946-6.234 8.109-6.266 3.585-0.019 7.825 1.902 8.772 6.265 0.237 1.09 1.163 1.735 2.073 1.452 0.906-0.283 1.451-1.223 1.214-2.313-1.401-6.454-6.993-9.15-11.958-9.15" fill="#7ac943"/></g><g id="g434" transform="translate(245.89 181.44)"><path id="path436" d="m0 0h-0.129c-5.773 0-10.241 3.555-11.38 9.181-0.221 1.094 0.337 2.107 1.25 2.375 0.91 0.259 1.829-0.451 2.051-1.544 0.922-4.559 4.944-6.234 8.109-6.266 3.583-0.019 7.826 1.902 8.771 6.265 0.236 1.09 1.164 1.735 2.072 1.452s1.451-1.223 1.215-2.313c-1.401-6.454-6.992-9.15-11.959-9.15" fill="#7ac943"/></g><g id="g438" transform="translate(227.21 152.44)"><path id="path440" d="m0 0h-0.129c-5.773 0-10.241 3.787-11.378 9.414-0.223 1.096 0.335 2.223 1.248 2.49 0.91 0.261 1.829-0.392 2.051-1.486 0.921-4.557 4.944-6.202 8.109-6.235 3.583-0.018 7.826 1.916 8.771 6.278 0.236 1.091 1.164 1.742 2.072 1.46 0.908-0.283 1.451-1.452 1.215-2.542-1.402-6.453-6.994-9.379-11.959-9.379" fill="#7ac943"/></g><g id="g442" transform="translate(192.11 152.44)"><path id="path444" d="m0 0h-0.127c-5.775 0-10.242 3.787-11.382 9.414-0.221 1.096 0.339 2.223 1.25 2.49 0.91 0.261 1.829-0.392 2.052-1.486 0.921-4.557 4.944-6.202 8.108-6.235 3.585-0.018 7.826 1.916 8.771 6.278 0.238 1.091 1.164 1.742 2.073 1.46 0.907-0.283 1.452-1.452 1.214-2.542-1.401-6.453-6.992-9.379-11.959-9.379" fill="#7ac943"/></g><g id="g446" transform="translate(223.86 287.38)"><path id="path448" d="m0 0c0-19.371 15.704-35.074 35.072-35.074 19.372 0 35.074 15.703 35.074 35.074s-15.702 35.071-35.074 35.071c-19.368 0-35.072-15.7-35.072-35.071" fill="#fff"/></g><g id="g450" transform="translate(249.01 281.21)"><path id="path452" d="m0 0c0-10.656 8.635-19.293 19.29-19.293s19.289 8.637 19.289 19.293c0 10.652-8.634 19.29-19.289 19.29s-19.29-8.638-19.29-19.29"/></g><g id="g454" transform="translate(275.51 288.02)"><path id="path456" d="m0 0c0-1.938 1.57-3.508 3.506-3.508 1.937 0 3.506 1.57 3.506 3.508 0 1.936-1.569 3.507-3.506 3.507-1.936 0-3.506-1.571-3.506-3.507" fill="#fff"/></g><g id="g458" transform="translate(122.54 287.38)"><path id="path460" d="m0 0c0-19.371 15.702-35.074 35.073-35.074s35.074 15.703 35.074 35.074-15.703 35.071-35.074 35.071-35.073-15.7-35.073-35.071" fill="#fff"/></g><g id="g462" transform="translate(147.69 281.21)"><path id="path464" d="m0 0c0-10.656 8.637-19.293 19.29-19.293s19.29 8.637 19.29 19.293c0 10.652-8.637 19.29-19.29 19.29s-19.29-8.638-19.29-19.29"/></g><g id="g466" transform="translate(174.19 288.02)"><path id="path468" d="m0 0c0-1.938 1.57-3.508 3.508-3.508 1.936 0 3.506 1.57 3.506 3.508 0 1.936-1.57 3.507-3.506 3.507-1.938 0-3.508-1.571-3.508-3.507" fill="#fff"/></g><g id="g470" transform="translate(196.59 264.63)"><path id="path472" d="m0 0c8.732 10.24 22.52 3.841 23.438 0 0.921-3.837-12.694-23.033-12.694-23.033s-10.687 19.196-10.744 23.033" fill="#f99525"/></g></g></g><g id="g474"><g id="g476" clip-path="url(#clipPath478)"><g id="g482" transform="translate(570.54 47.11)"><path id="path484" d="m0 0c0.54 0 1.037-0.471 1.037-0.471l-8.905-19.021c-0.976 0-3.316-0.139-3.888-0.139-0.539 0-1.037 0.471-1.037 0.471l-3.045 19.021c1.847 0 4.156 0.139 4.848 0.139 0.542 0 1.037-0.471 1.037-0.471l0.932-9.305c0.08-0.802 0.086-1.914 0.053-3.086 0.3 1.279 0.629 2.49 0.951 3.307l3.703 9.418c1.641 0 3.679 0.137 4.312 0.137h0.002z" fill="#0071bc"/></g><g id="g486" transform="translate(574.61 35.736)"><path id="path488" d="m0 0c0.645 0.203 0.838 0.735 0.838 1.344 0 0.573-0.186 1.429-0.851 1.429-1.198 0-1.725-1.934-1.917-3.384l1.93 0.611zm5.11 1.99c0-2.071-1.156-3.44-4.037-4.034l-3.022-0.624c0.232-1.303 1.051-1.939 2.41-1.939 1.665 0 2.779 1.256 2.779 1.256s0.85-0.473 0.85-1.446c0-1.725-2.647-3.598-5.725-3.598-3.123 0-5.161 1.974-5.161 5.306 0 3.85 2.728 9.072 7.582 9.072 2.658 0 4.324-1.574 4.324-3.993" fill="#0071bc"/></g><g id="g490" transform="translate(587.86 41.72)"><path id="path492" d="m0 0c2.449 0 4.29-1.298 4.29-2.983 0-2.108-2.552-2.878-2.552-2.878s-0.748 2.302-2.464 2.302c-1.162 0-1.831-1.176-1.831-3.683 0-2.31 0.608-3.349 2.102-3.349 1.533 0 2.476 1.044 2.476 1.044s0.851-0.473 0.851-1.419c0-1.651-2.542-3.412-5.501-3.412-3.151 0-5.093 1.974-5.093 5.254 0 3.901 2.789 9.124 7.724 9.124h-0.002z" fill="#0071bc"/></g><g id="g494" transform="translate(599.63 44.794)"><path id="path496" d="m0 0c0.59 0 0.983-0.45 0.983-0.45l-0.461-2.902h3.073l-0.694-2.211c-0.224-0.712-0.578-1.106-1.298-1.106h-1.606l-0.895-5.652c-0.146-0.914 0.053-1.337 0.675-1.344 0.566-0.004 1.123 0.345 1.123 0.345s0.858-0.478 0.858-1.374c0-1.384-1.974-2.758-4.471-2.758-2.649 0-3.718 1.621-3.268 4.457l1 6.326h-1.667l0.725 2.308c0.187 0.591 0.675 1.009 1.273 1.009h0.81l0.972 2.671c1.202 0.295 2.322 0.681 2.868 0.681" fill="#0071bc"/></g><g id="g498" transform="translate(609.44 35.736)"><path id="path500" d="m0 0c0.644 0.203 0.838 0.735 0.838 1.344 0 0.573-0.187 1.429-0.851 1.429-1.198 0-1.727-1.934-1.917-3.384l1.93 0.611zm5.109 1.99c0-2.071-1.155-3.44-4.036-4.034l-3.023-0.624c0.233-1.303 1.052-1.939 2.409-1.939 1.665 0 2.78 1.256 2.78 1.256s0.851-0.473 0.851-1.446c0-1.725-2.647-3.598-5.725-3.598-3.124 0-5.161 1.974-5.161 5.306 0 3.85 2.727 9.072 7.582 9.072 2.658 0 4.324-1.574 4.324-3.993h-0.001z" fill="#0071bc"/></g><g id="g502" transform="translate(621.77 35.736)"><path id="path504" d="m0 0c0.645 0.203 0.838 0.735 0.838 1.344 0 0.573-0.188 1.429-0.851 1.429-1.198 0-1.727-1.934-1.918-3.384l1.931 0.611zm5.108 1.99c0-2.071-1.155-3.44-4.035-4.034l-3.023-0.624c0.232-1.303 1.051-1.939 2.409-1.939 1.667 0 2.779 1.256 2.779 1.256s0.852-0.473 0.852-1.446c0-1.725-2.647-3.598-5.725-3.598-3.124 0-5.162 1.974-5.162 5.306 0 3.85 2.729 9.072 7.582 9.072 2.659 0 4.325-1.574 4.325-3.993h-0.002z" fill="#0071bc"/></g><g id="g506" transform="translate(636.96 32.562)"><path id="path508" d="m0 0s1.039-0.96 1.039-2.548c0-2.118-1.794-2.673-3.297-2.673-1.959 0-3.384 0.934-4.874 1.438-0.415-0.479-0.822-0.959-1.212-1.438 0 0-2.208 0.056-2.208 1.56 0 1.834 3.057 4.979 6.351 8.544-0.38 0.068-0.744 0.115-1.073 0.115-1.872 0-2.598-0.936-2.598-0.936s-0.963 1.108-0.882 2.549c0.11 1.998 2.01 2.546 3.502 2.546 1.583 0 2.744-0.611 3.887-1.112l0.928 1.112s2.227-0.068 2.227-1.58c0-1.769-2.959-4.858-6.157-8.306 0.677-0.19 1.307-0.343 1.932-0.343 1.659 0 2.435 1.072 2.435 1.072" fill="#0071bc"/></g><g id="g510" transform="translate(651.3 28.562)"><path id="path512" d="m0 0c-0.795-4.842-4.113-7.303-8.314-7.303-2.683 0-4.685 1.409-4.685 3.042 0 1.077 0.897 1.576 0.897 1.576s0.912-0.83 2.71-0.83c1.686 0 3.972 0.719 4.374 3.264l0.315 1.981c-1.132-1.628-2.634-2.95-4.53-2.95-2.132 0-3.081 1.744-2.52 5.288l0.607 3.836c0.373 2.35 0.475 4.267 0.475 4.267 1.517 0.28 3.517 0.987 4.217 0.987 0.542 0 1.045-0.452 1.045-0.452l-0.76-4.802-0.702-4.429c-0.064-0.409 0.013-0.638 0.383-0.638 1.766 0 2.762 5.067 2.762 5.067 0.372 2.35 0.475 4.267 0.475 4.267 1.515 0.28 3.516 0.987 4.216 0.987 0.543 0 1.046-0.452 1.046-0.452l-0.761-4.802-1.25-7.904z" fill="#0071bc"/></g><g id="g514" transform="translate(449.15 38.764)"><path id="path516" d="m0 0v-8.534h1.942c0.727 0 1.251 0.041 1.574 0.123 0.422 0.105 0.772 0.284 1.05 0.536s0.505 0.666 0.681 1.244c0.176 0.576 0.264 1.363 0.264 2.36 0 0.996-0.088 1.76-0.264 2.293-0.176 0.534-0.422 0.95-0.738 1.248-0.317 0.299-0.718 0.501-1.204 0.607-0.364 0.082-1.076 0.123-2.136 0.123h-1.169zm-2.602 2.18h4.755c1.073 0 1.89-0.082 2.452-0.246 0.756-0.223 1.404-0.619 1.943-1.187s0.949-1.265 1.23-2.087c0.282-0.824 0.422-1.839 0.422-3.046 0-1.06-0.132-1.974-0.395-2.742-0.323-0.938-0.783-1.696-1.38-2.276-0.451-0.44-1.061-0.783-1.828-1.029-0.575-0.181-1.342-0.272-2.303-0.272h-4.896v12.885z" fill="#0071bc"/></g><g id="g518" transform="translate(464.73 33.525)"><path id="path520" d="m0 0c-0.018 0.715-0.202 1.258-0.554 1.631-0.351 0.371-0.779 0.557-1.283 0.557-0.539 0-0.984-0.196-1.336-0.588-0.351-0.393-0.524-0.926-0.518-1.6h3.691zm-0.141-2.496 2.461-0.413c-0.316-0.903-0.816-1.59-1.498-2.062-0.683-0.471-1.537-0.707-2.562-0.707-1.623 0-2.824 0.53-3.604 1.591-0.615 0.85-0.923 1.922-0.923 3.217 0 1.547 0.405 2.758 1.213 3.634 0.809 0.876 1.831 1.314 3.068 1.314 1.388 0 2.484-0.459 3.287-1.375 0.802-0.918 1.186-2.322 1.151-4.215h-6.187c0.017-0.732 0.217-1.302 0.597-1.709 0.381-0.408 0.856-0.611 1.424-0.611 0.387 0 0.712 0.105 0.976 0.316 0.263 0.211 0.463 0.551 0.597 1.02" fill="#0071bc"/></g><g id="g522" transform="translate(467.96 30.722)"><path id="path524" d="m0 0 2.478 0.378c0.106-0.481 0.32-0.846 0.642-1.094 0.322-0.25 0.774-0.374 1.354-0.374 0.638 0 1.119 0.117 1.441 0.352 0.217 0.164 0.325 0.384 0.325 0.659 0 0.187-0.058 0.343-0.176 0.466-0.123 0.117-0.398 0.225-0.826 0.325-1.992 0.439-3.255 0.841-3.788 1.204-0.738 0.504-1.107 1.204-1.107 2.101 0 0.808 0.319 1.488 0.958 2.039 0.638 0.55 1.629 0.826 2.97 0.826 1.278 0 2.227-0.208 2.848-0.624s1.049-1.031 1.283-1.846l-2.329-0.431c-0.099 0.364-0.288 0.642-0.567 0.835-0.278 0.194-0.675 0.29-1.191 0.29-0.65 0-1.116-0.09-1.397-0.272-0.188-0.129-0.281-0.296-0.281-0.501 0-0.176 0.082-0.325 0.246-0.448 0.222-0.164 0.991-0.396 2.307-0.695 1.315-0.298 2.234-0.665 2.755-1.098 0.516-0.44 0.774-1.052 0.774-1.837 0-0.856-0.358-1.591-1.073-2.206-0.714-0.615-1.772-0.923-3.172-0.923-1.272 0-2.278 0.258-3.019 0.773-0.742 0.516-1.227 1.216-1.455 2.101" fill="#0071bc"/></g><path id="path526" d="m478.48 37.393h2.47v-9.334h-2.47v9.334zm0 3.55h2.47v-2.285h-2.47v2.285z" fill="#0071bc"/><g id="g528" transform="translate(485.1 32.919)"><path id="path530" d="m0 0c0-0.99 0.192-1.716 0.576-2.175 0.383-0.461 0.857-0.69 1.419-0.69 0.604 0 1.113 0.235 1.529 0.708 0.416 0.471 0.624 1.17 0.624 2.096 0 0.966-0.199 1.684-0.597 2.153-0.399 0.469-0.903 0.703-1.512 0.703-0.592 0-1.08-0.231-1.463-0.69-0.384-0.46-0.576-1.162-0.576-2.105m-2.206-5.475 2.821-0.343c0.047-0.328 0.156-0.554 0.325-0.677 0.235-0.176 0.604-0.264 1.108-0.264 0.644 0 1.128 0.097 1.45 0.29 0.217 0.129 0.381 0.337 0.492 0.624 0.076 0.205 0.114 0.583 0.114 1.134v1.362c-0.738-1.007-1.669-1.511-2.794-1.511-1.254 0-2.247 0.53-2.98 1.59-0.574 0.838-0.861 1.881-0.861 3.129 0 1.565 0.376 2.76 1.129 3.586s1.689 1.24 2.808 1.24c1.155 0 2.107-0.507 2.857-1.521v1.31h2.311v-8.376c0-1.102-0.091-1.925-0.272-2.47-0.182-0.545-0.437-0.973-0.765-1.283-0.328-0.311-0.766-0.554-1.314-0.73s-1.241-0.263-2.078-0.263c-1.583 0-2.705 0.271-3.367 0.813s-0.993 1.229-0.993 2.061c0 0.082 0.003 0.181 0.009 0.299" fill="#0071bc"/></g><g id="g532" transform="translate(502.25 28.059)"><path id="path534" d="m0 0h-2.47v4.764c0 1.008-0.053 1.659-0.158 1.955s-0.277 0.526-0.514 0.69-0.523 0.246-0.857 0.246c-0.428 0-0.812-0.117-1.151-0.351-0.34-0.235-0.573-0.545-0.699-0.932s-0.189-1.101-0.189-2.144v-4.228h-2.47v9.334h2.294v-1.371c0.815 1.055 1.84 1.582 3.076 1.582 0.545 0 1.043-0.099 1.494-0.295 0.452-0.196 0.793-0.446 1.024-0.751 0.232-0.305 0.393-0.65 0.484-1.037s0.136-0.94 0.136-1.661v-5.801z" fill="#0071bc"/></g><g id="g536" transform="translate(509.94 33.525)"><path id="path538" d="m0 0c-0.018 0.715-0.202 1.258-0.554 1.631-0.351 0.371-0.779 0.557-1.283 0.557-0.539 0-0.984-0.196-1.336-0.588-0.351-0.393-0.524-0.926-0.518-1.6h3.691zm-0.141-2.496 2.461-0.413c-0.316-0.903-0.816-1.59-1.498-2.062-0.683-0.471-1.537-0.707-2.562-0.707-1.623 0-2.824 0.53-3.604 1.591-0.615 0.85-0.923 1.922-0.923 3.217 0 1.547 0.405 2.758 1.213 3.634 0.809 0.876 1.831 1.314 3.068 1.314 1.388 0 2.484-0.459 3.287-1.375 0.802-0.918 1.186-2.322 1.151-4.215h-6.187c0.017-0.732 0.216-1.302 0.597-1.709 0.381-0.408 0.856-0.611 1.424-0.611 0.387 0 0.712 0.105 0.976 0.316 0.263 0.211 0.463 0.551 0.597 1.02" fill="#0071bc"/></g><g id="g540" transform="translate(516.01 32.928)"><path id="path542" d="m0 0c0-0.996 0.138-1.717 0.413-2.162 0.399-0.645 0.955-0.967 1.67-0.967 0.568 0 1.052 0.242 1.45 0.725 0.399 0.484 0.598 1.206 0.598 2.167 0 1.072-0.193 1.843-0.58 2.315s-0.882 0.708-1.486 0.708c-0.585 0-1.076-0.233-1.472-0.698-0.395-0.467-0.593-1.162-0.593-2.088m6.592-4.869h-2.294v1.371c-0.381-0.533-0.831-0.931-1.349-1.191-0.519-0.26-1.042-0.391-1.569-0.391-1.072 0-1.991 0.432-2.755 1.297-0.765 0.863-1.147 2.069-1.147 3.616 0 1.582 0.372 2.784 1.116 3.608 0.744 0.823 1.684 1.235 2.821 1.235 1.043 0 1.945-0.434 2.707-1.301v4.641h2.47v-12.885z" fill="#0071bc"/></g><g id="g544" transform="translate(531.67 32.928)"><path id="path546" d="m0 0c0-0.967 0.152-1.682 0.457-2.145 0.428-0.656 0.996-0.984 1.705-0.984 0.545 0 1.009 0.233 1.393 0.699 0.384 0.465 0.576 1.2 0.576 2.201 0 1.067-0.194 1.835-0.58 2.307-0.387 0.472-0.882 0.708-1.486 0.708-0.591 0-1.084-0.23-1.476-0.69-0.393-0.46-0.589-1.159-0.589-2.096m-2.452-4.869v12.885h2.469v-4.641c0.762 0.867 1.665 1.301 2.708 1.301 1.136 0 2.077-0.412 2.821-1.235 0.744-0.824 1.116-2.005 1.116-3.546 0-1.594-0.379-2.822-1.138-3.683s-1.68-1.292-2.764-1.292c-0.534 0-1.059 0.134-1.578 0.4s-0.965 0.66-1.34 1.182v-1.371h-2.294z" fill="#0071bc"/></g><g id="g548" transform="translate(538.79 37.393)"><path id="path550" d="m0 0h2.628l2.232-6.627 2.18 6.627h2.558l-3.296-8.982-0.589-1.626c-0.217-0.545-0.424-0.961-0.62-1.249-0.196-0.287-0.422-0.519-0.676-0.698-0.255-0.178-0.569-0.318-0.941-0.418-0.372-0.099-0.792-0.149-1.261-0.149-0.475 0-0.941 0.05-1.398 0.149l-0.219 1.934c0.386-0.076 0.735-0.114 1.046-0.114 0.574 0 0.999 0.169 1.274 0.504 0.275 0.338 0.486 0.767 0.633 1.289l-3.551 9.36z" fill="#0071bc"/></g></g></g></g></svg>
