<?xml version="1.0" encoding="UTF-8" standalone="no"?>
<!-- Created with Inkscape (http://www.inkscape.org/) -->

<svg
   xmlns:dc="http://purl.org/dc/elements/1.1/"
   xmlns:cc="http://creativecommons.org/ns#"
   xmlns:rdf="http://www.w3.org/1999/02/22-rdf-syntax-ns#"
   xmlns:svg="http://www.w3.org/2000/svg"
   xmlns="http://www.w3.org/2000/svg"
   xmlns:sodipodi="http://sodipodi.sourceforge.net/DTD/sodipodi-0.dtd"
   xmlns:inkscape="http://www.inkscape.org/namespaces/inkscape"
   id="svg2"
   version="1.1"
   inkscape:version="0.91 r13725"
   xml:space="preserve"
   width="1370"
   height="975"
   viewBox="0 0 1370 975"
   sodipodi:docname="77.svg"><metadata
     id="metadata8"><rdf:RDF><cc:Work
         rdf:about=""><dc:format>image/svg+xml</dc:format><dc:type
           rdf:resource="http://purl.org/dc/dcmitype/StillImage" /><dc:title></dc:title></cc:Work></rdf:RDF></metadata><defs
     id="defs6"><clipPath
       clipPathUnits="userSpaceOnUse"
       id="clipPath16"><path
         d="M 0,780 1096,780 1096,0 0,0 0,780 Z"
         id="path18"
         inkscape:connector-curvature="0" /></clipPath><clipPath
       clipPathUnits="userSpaceOnUse"
       id="clipPath24"><path
         d="M 0,780 1096,780 1096,0 0,0 0,780 Z"
         id="path26"
         inkscape:connector-curvature="0" /></clipPath><clipPath
       clipPathUnits="userSpaceOnUse"
       id="clipPath478"><path
         d="M 0,780 1096,780 1096,0 0,0 0,780 Z"
         id="path480"
         inkscape:connector-curvature="0" /></clipPath></defs><sodipodi:namedview
     pagecolor="#ffffff"
     bordercolor="#666666"
     borderopacity="1"
     objecttolerance="10"
     gridtolerance="10"
     guidetolerance="10"
     inkscape:pageopacity="0"
     inkscape:pageshadow="2"
     inkscape:window-width="1600"
     inkscape:window-height="834"
     id="namedview4"
     showgrid="false"
     inkscape:zoom="0.22627737"
     inkscape:cx="685"
     inkscape:cy="487.5"
     inkscape:window-x="0"
     inkscape:window-y="27"
     inkscape:window-maximized="1"
     inkscape:current-layer="g10" /><g
     id="g10"
     inkscape:groupmode="layer"
     inkscape:label="77"
     transform="matrix(1.25,0,0,-1.25,0,975)"><g
       id="g12"><g
         id="g14"
         clip-path="url(#clipPath16)"><g
           id="g20"><g
             id="g22" /><g
             id="g28"><g
               clip-path="url(#clipPath24)"
               id="g30"
               style="opacity:0.25"><path
                 d="M 1096,0 0,0 l 0,780 1096,0 0,-780 z"
                 style="fill:#29abe2;fill-opacity:1;fill-rule:nonzero;stroke:none"
                 id="path32"
                 inkscape:connector-curvature="0" /></g></g></g><g
           id="g34"
           transform="translate(527.5196,114.4604)"><path
             d="m 0,0 -2.835,2.699 3.231,31.365 c 0.769,7.464 -0.327,13.653 -2.461,13.809 l -0.103,0.011 c -2.128,0.157 -4.48,-5.771 -5.247,-13.23 L -10.759,2.219 -13.069,0.882 C -20.461,-3.391 -25.46,-8.039 -24.234,-9.495 l 0.06,-0.074 c 1.062,-1.262 6.431,0.284 12.647,3.492 -0.257,-6.153 0.813,-10.921 2.669,-10.978 l 0.105,-0.002 c 1.899,-0.058 3.969,4.588 4.941,10.889 5.233,-4.541 10.176,-7.262 11.594,-6.23 l 0.076,0.055 C 9.464,-11.179 5.95,-5.652 0,0"
             style="fill:#ff931e;fill-opacity:1;fill-rule:nonzero;stroke:none"
             id="path36"
             inkscape:connector-curvature="0" /></g><g
           id="g38"
           transform="translate(587.6426,115.7124)"><path
             d="M 0,0 -2.283,1.382 -5,33.58 c -0.632,7.477 -2.852,13.192 -4.983,13.052 l -0.11,-0.005 c -2.127,-0.142 -3.364,-5.995 -2.735,-13.475 l 2.63,-31.145 -2.887,-2.646 c -6.052,-5.539 -9.673,-10.998 -8.087,-12.193 l 0.079,-0.063 c 1.401,-1.05 6.389,1.576 11.701,6.016 0.846,-6.375 2.836,-11.115 4.752,-11.008 l 0.097,0.037 c 1.852,0.106 3.014,4.786 2.872,10.92 6.154,-3.321 11.496,-4.966 12.576,-3.728 l 0.065,0.076 C 12.225,-9.15 7.315,-4.404 0,0"
             style="fill:#ff931e;fill-opacity:1;fill-rule:nonzero;stroke:none"
             id="path40"
             inkscape:connector-curvature="0" /></g><g
           id="g42"
           transform="translate(453.8249,359.1447)"><path
             d="m 0,0 c 5.845,4.871 32.151,-6.82 32.151,-6.82 0,0 30.2,15.587 65.274,15.587 35.07,0 59.427,-15.587 59.427,-15.587 0,0 30.203,14.614 36.05,9.743 5.843,-4.872 -5.885,-45.232 -5.847,-60.403 0.126,-49.162 37.022,-171.468 -94.502,-172.443 C -38.97,-230.896 1.175,-106.034 2.923,-57.48 3.439,-43.104 -5.847,-4.872 0,0"
             style="fill:#f9a704;fill-opacity:1;fill-rule:nonzero;stroke:none"
             id="path44"
             inkscape:connector-curvature="0" /></g><g
           id="g46"
           transform="translate(640.8799,301.6649)"><path
             d="m 0,0 c 0,0.385 0.013,0.799 0.024,1.217 -8.009,16.242 -24.725,27.425 -44.061,27.425 -22.862,0 -42.077,-15.631 -47.541,-36.787 -5.466,21.156 -24.681,36.787 -47.545,36.787 -20.174,0 -37.5,-12.173 -45.054,-29.569 -0.36,-8.028 -1.686,-18.02 -3.104,-29.136 4.47,-22.521 24.327,-39.5 48.158,-39.5 22.864,0 42.079,15.627 47.545,36.788 5.464,-21.161 24.679,-36.788 47.541,-36.788 21.889,0 40.426,14.329 46.763,34.108 C 1.431,-21.834 0.024,-9.538 0,0"
             style="fill:#fcd2ac;fill-opacity:1;fill-rule:nonzero;stroke:none"
             id="path48"
             inkscape:connector-curvature="0" /></g><g
           id="g50"
           transform="translate(550.7615,224.6991)"><path
             d="m 0,0 c -41.697,0 -75.503,-32.933 -75.503,-73.558 0,-0.337 0.023,-0.674 0.025,-1.014 14.688,-13.02 37.17,-21.156 71.094,-20.905 40.417,0.3 64.909,12.068 79.475,29.636 C 71.131,-28.843 39.025,0 0,0"
             style="fill:#fcd2ac;fill-opacity:1;fill-rule:nonzero;stroke:none"
             id="path52"
             inkscape:connector-curvature="0" /></g><g
           id="g54"
           transform="translate(560.9918,264.2979)"><path
             d="m 0,0 c -8.732,10.237 -22.519,3.839 -23.439,0 -0.92,-3.841 12.695,-23.038 12.695,-23.038 0,0 10.687,19.197 10.744,23.038"
             style="fill:#f99525;fill-opacity:1;fill-rule:nonzero;stroke:none"
             id="path56"
             inkscape:connector-curvature="0" /></g><g
           id="g58"
           transform="translate(499.3808,267.6385)"><path
             d="m 0,0 c -14.44,0 -26.324,10.913 -27.877,24.94 -0.112,-1.025 -0.18,-2.063 -0.18,-3.119 0,-15.497 12.561,-28.057 28.057,-28.057 15.499,0 28.06,12.56 28.06,28.057 0,1.056 -0.069,2.094 -0.184,3.119 C 26.326,10.913 14.442,0 0,0"
             style="fill:#000000;fill-opacity:1;fill-rule:nonzero;stroke:none"
             id="path60"
             inkscape:connector-curvature="0" /></g><g
           id="g62"
           transform="translate(596.8059,267.6385)"><path
             d="m 0,0 c -14.44,0 -26.324,10.913 -27.877,24.94 -0.112,-1.025 -0.181,-2.063 -0.181,-3.119 0,-15.497 12.562,-28.057 28.058,-28.057 15.497,0 28.059,12.56 28.059,28.057 0,1.056 -0.069,2.094 -0.183,3.119 C 26.325,10.913 14.442,0 0,0"
             style="fill:#000000;fill-opacity:1;fill-rule:nonzero;stroke:none"
             id="path64"
             inkscape:connector-curvature="0" /></g><g
           id="g66"
           transform="translate(619.2949,200.6568)"><path
             d="M 0,0 C 5.386,22.464 13.402,32.234 19.843,35.944 31.5,42.02 44.611,12.177 49.946,-6.473 c 5.989,-20.951 6.141,-39.362 0.329,-41.117 -4.186,-1.262 -10.332,6.481 -15.678,18.757 -2.063,-13.613 -6.036,-22.579 -10.473,-21.92 -4.238,0.632 -7.807,9.896 -9.567,23.084 C 9.748,-39.912 4.234,-47.235 0.335,-45.41 -5.233,-42.797 -5.387,-22.467 0,0"
             style="fill:#ef8935;fill-opacity:1;fill-rule:nonzero;stroke:none"
             id="path68"
             inkscape:connector-curvature="0" /></g><g
           id="g70"
           transform="translate(479.8802,199.3855)"><path
             d="m 0,0 c -4.621,22.635 -12.301,32.669 -18.615,36.597 -11.443,6.466 -25.557,-22.917 -31.522,-41.373 -6.696,-20.739 -7.471,-39.133 -1.722,-41.083 4.142,-1.405 10.545,6.126 16.306,18.215 1.599,-13.675 5.264,-22.771 9.724,-22.263 4.256,0.49 8.138,9.629 10.344,22.748 4.39,-12.401 9.653,-19.907 13.61,-18.213 C 3.779,-42.95 4.624,-22.637 0,0"
             style="fill:#ef8935;fill-opacity:1;fill-rule:nonzero;stroke:none"
             id="path72"
             inkscape:connector-curvature="0" /></g><g
           id="g74"
           transform="translate(549.4198,181.4384)"><path
             d="m 0,0 -0.129,0 c -5.775,0 -10.241,3.555 -11.38,9.181 -0.221,1.094 0.337,2.107 1.25,2.375 0.908,0.259 1.829,-0.451 2.051,-1.544 0.921,-4.559 4.943,-6.234 8.109,-6.266 3.583,-0.019 7.824,1.902 8.769,6.265 0.238,1.09 1.166,1.735 2.074,1.452 C 11.652,11.18 12.195,10.24 11.958,9.15 10.557,2.696 4.965,0 0,0"
             style="fill:#e97f19;fill-opacity:1;fill-rule:nonzero;stroke:none"
             id="path76"
             inkscape:connector-curvature="0" /></g><g
           id="g78"
           transform="translate(513.1916,181.4384)"><path
             d="m 0,0 -0.129,0 c -5.775,0 -10.242,3.555 -11.38,9.181 -0.223,1.094 0.337,2.107 1.249,2.375 0.909,0.259 1.829,-0.451 2.05,-1.544 0.923,-4.559 4.946,-6.234 8.109,-6.266 3.585,-0.019 7.825,1.902 8.772,6.265 0.237,1.09 1.163,1.735 2.073,1.452 C 11.65,11.18 12.195,10.24 11.958,9.15 10.557,2.696 4.965,0 0,0"
             style="fill:#e97f19;fill-opacity:1;fill-rule:nonzero;stroke:none"
             id="path80"
             inkscape:connector-curvature="0" /></g><g
           id="g82"
           transform="translate(585.648,181.4384)"><path
             d="m 0,0 -0.129,0 c -5.774,0 -10.241,3.555 -11.38,9.181 -0.221,1.094 0.337,2.107 1.25,2.375 0.91,0.259 1.829,-0.451 2.05,-1.544 0.923,-4.559 4.944,-6.234 8.11,-6.266 3.583,-0.019 7.826,1.902 8.771,6.265 0.236,1.09 1.164,1.735 2.072,1.452 C 11.652,11.18 12.195,10.24 11.959,9.15 10.558,2.696 4.967,0 0,0"
             style="fill:#e97f19;fill-opacity:1;fill-rule:nonzero;stroke:none"
             id="path84"
             inkscape:connector-curvature="0" /></g><g
           id="g86"
           transform="translate(566.9675,152.4384)"><path
             d="m 0,0 -0.129,0 c -5.773,0 -10.24,3.787 -11.378,9.414 -0.223,1.096 0.335,2.223 1.248,2.49 0.91,0.261 1.829,-0.392 2.051,-1.486 0.921,-4.557 4.944,-6.202 8.109,-6.235 3.583,-0.018 7.826,1.916 8.771,6.278 0.236,1.091 1.164,1.742 2.072,1.46 0.908,-0.283 1.451,-1.452 1.216,-2.542 C 10.557,2.926 4.965,0 0,0"
             style="fill:#e97f19;fill-opacity:1;fill-rule:nonzero;stroke:none"
             id="path88"
             inkscape:connector-curvature="0" /></g><g
           id="g90"
           transform="translate(531.8704,152.4384)"><path
             d="m 0,0 -0.127,0 c -5.775,0 -10.243,3.787 -11.382,9.414 -0.221,1.096 0.339,2.223 1.25,2.49 0.91,0.261 1.829,-0.392 2.052,-1.486 0.921,-4.557 4.944,-6.202 8.108,-6.235 3.585,-0.018 7.826,1.916 8.771,6.278 0.238,1.091 1.164,1.742 2.073,1.46 0.907,-0.283 1.452,-1.452 1.214,-2.542 C 10.558,2.926 4.967,0 0,0"
             style="fill:#e97f19;fill-opacity:1;fill-rule:nonzero;stroke:none"
             id="path92"
             inkscape:connector-curvature="0" /></g><g
           id="g94"
           transform="translate(862.0262,114.4604)"><path
             d="m 0,0 -2.835,2.699 3.231,31.365 c 0.769,7.464 -0.327,13.653 -2.46,13.809 l -0.104,0.011 c -2.128,0.157 -4.479,-5.771 -5.247,-13.23 L -10.759,2.219 -13.069,0.882 C -20.461,-3.391 -25.46,-8.039 -24.234,-9.495 l 0.06,-0.074 c 1.062,-1.262 6.431,0.284 12.647,3.492 -0.257,-6.153 0.813,-10.921 2.669,-10.978 l 0.105,-0.002 c 1.9,-0.058 3.969,4.588 4.942,10.889 5.232,-4.541 10.175,-7.262 11.593,-6.23 l 0.076,0.055 C 9.464,-11.179 5.95,-5.652 0,0"
             style="fill:#ff931e;fill-opacity:1;fill-rule:nonzero;stroke:none"
             id="path96"
             inkscape:connector-curvature="0" /></g><g
           id="g98"
           transform="translate(922.1493,115.7124)"><path
             d="M 0,0 -2.283,1.382 -5,33.58 c -0.632,7.477 -2.853,13.192 -4.983,13.052 l -0.11,-0.005 c -2.127,-0.142 -3.364,-5.995 -2.735,-13.475 l 2.63,-31.145 -2.887,-2.646 c -6.052,-5.539 -9.673,-10.998 -8.087,-12.193 l 0.079,-0.063 c 1.401,-1.05 6.389,1.576 11.701,6.016 0.846,-6.375 2.836,-11.115 4.752,-11.008 l 0.097,0.037 c 1.852,0.106 3.014,4.786 2.872,10.92 6.154,-3.321 11.496,-4.966 12.576,-3.728 l 0.065,0.076 C 12.225,-9.15 7.314,-4.404 0,0"
             style="fill:#ff931e;fill-opacity:1;fill-rule:nonzero;stroke:none"
             id="path100"
             inkscape:connector-curvature="0" /></g><g
           id="g102"
           transform="translate(979.9574,359.8016)"><path
             d="m 0,0 c -5.847,4.871 -32.151,-6.818 -32.151,-6.818 0,0 -30.2,15.588 -65.273,15.588 -35.076,0 -59.432,-15.588 -59.432,-15.588 0,0 -30.201,14.614 -36.046,9.743 -5.844,-4.87 5.886,-45.236 5.845,-60.406 -0.125,-49.16 -37.02,-171.468 94.503,-172.44 131.524,-0.974 91.376,123.884 89.63,172.44 C -3.442,-43.1 5.843,-4.873 0,0"
             style="fill:#2faea4;fill-opacity:1;fill-rule:nonzero;stroke:none"
             id="path104"
             inkscape:connector-curvature="0" /></g><g
           id="g106"
           transform="translate(792.9005,302.3206)"><path
             d="m 0,0 c 0.001,0.385 -0.01,0.799 -0.024,1.217 8.009,16.246 24.726,27.425 44.06,27.425 22.867,0 42.081,-15.627 47.544,-36.786 5.464,21.159 24.677,36.786 47.544,36.786 20.173,0 37.499,-12.173 45.052,-29.57 0.36,-8.025 1.689,-18.019 3.104,-29.132 -4.466,-22.52 -24.325,-39.504 -48.156,-39.504 -22.867,0 -42.08,15.633 -47.544,36.792 -5.463,-21.159 -24.677,-36.792 -47.544,-36.792 -21.888,0 -40.421,14.33 -46.762,34.114 C -1.433,-21.831 -0.024,-9.534 0,0"
             style="fill:#309292;fill-opacity:1;fill-rule:nonzero;stroke:none"
             id="path108"
             inkscape:connector-curvature="0" /></g><g
           id="g110"
           transform="translate(883.0176,225.3554)"><path
             d="m 0,0 c 41.701,0 75.506,-32.933 75.506,-73.553 0,-0.343 -0.022,-0.676 -0.029,-1.018 -14.683,-13.02 -37.166,-21.155 -71.091,-20.903 -40.415,0.295 -64.91,12.064 -79.474,29.632 C -71.127,-28.841 -39.022,0 0,0"
             style="fill:#309292;fill-opacity:1;fill-rule:nonzero;stroke:none"
             id="path112"
             inkscape:connector-curvature="0" /></g><g
           id="g114"
           transform="translate(900.0667,287.7066)"><path
             d="m 0,0 c 0,-19.371 15.703,-35.074 35.074,-35.074 19.371,0 35.074,15.703 35.074,35.074 0,19.371 -15.703,35.074 -35.074,35.074 C 15.703,35.074 0,19.371 0,0"
             style="fill:#ffffff;fill-opacity:1;fill-rule:nonzero;stroke:none"
             id="path116"
             inkscape:connector-curvature="0" /></g><g
           id="g118"
           transform="translate(906.1085,285.7613)"><path
             d="m 0,0 c 0,-10.656 8.636,-19.29 19.29,-19.29 10.655,0 19.291,8.634 19.291,19.29 0,10.651 -8.636,19.29 -19.291,19.29 C 8.636,19.29 0,10.651 0,0"
             style="fill:#000000;fill-opacity:1;fill-rule:nonzero;stroke:none"
             id="path120"
             inkscape:connector-curvature="0" /></g><g
           id="g122"
           transform="translate(932.6093,292.5776)"><path
             d="m 0,0 c 0,-1.935 1.57,-3.506 3.507,-3.506 1.936,0 3.505,1.571 3.505,3.506 0,1.936 -1.569,3.507 -3.505,3.507 C 1.57,3.507 0,1.936 0,0"
             style="fill:#ffffff;fill-opacity:1;fill-rule:nonzero;stroke:none"
             id="path124"
             inkscape:connector-curvature="0" /></g><g
           id="g126"
           transform="translate(798.7463,287.7066)"><path
             d="m 0,0 c 0,-19.371 15.703,-35.074 35.075,-35.074 19.369,0 35.073,15.703 35.073,35.074 0,19.371 -15.704,35.074 -35.073,35.074 C 15.703,35.074 0,19.371 0,0"
             style="fill:#ffffff;fill-opacity:1;fill-rule:nonzero;stroke:none"
             id="path128"
             inkscape:connector-curvature="0" /></g><g
           id="g130"
           transform="translate(804.7868,285.7613)"><path
             d="m 0,0 c 0,-10.656 8.635,-19.29 19.29,-19.29 10.655,0 19.291,8.634 19.291,19.29 0,10.651 -8.636,19.29 -19.291,19.29 C 8.635,19.29 0,10.651 0,0"
             style="fill:#000000;fill-opacity:1;fill-rule:nonzero;stroke:none"
             id="path132"
             inkscape:connector-curvature="0" /></g><g
           id="g134"
           transform="translate(831.2864,292.5776)"><path
             d="m 0,0 c 0,-1.935 1.571,-3.506 3.509,-3.506 1.936,0 3.506,1.571 3.506,3.506 0,1.936 -1.57,3.507 -3.506,3.507 C 1.571,3.507 0,1.936 0,0"
             style="fill:#ffffff;fill-opacity:1;fill-rule:nonzero;stroke:none"
             id="path136"
             inkscape:connector-curvature="0" /></g><g
           id="g138"
           transform="translate(872.7899,264.9542)"><path
             d="M 0,0 C 8.732,10.237 22.52,3.838 23.438,0 24.356,-3.839 10.743,-23.034 10.743,-23.034 10.743,-23.034 0.057,-3.839 0,0"
             style="fill:#f99525;fill-opacity:1;fill-rule:nonzero;stroke:none"
             id="path140"
             inkscape:connector-curvature="0" /></g><g
           id="g142"
           transform="translate(958.3379,200.8624)"><path
             d="M 0,0 C 5.386,22.464 13.402,32.234 19.843,35.944 31.5,42.02 44.611,12.177 49.946,-6.473 c 5.989,-20.951 6.141,-39.362 0.329,-41.117 -4.186,-1.262 -10.332,6.481 -15.678,18.757 -2.063,-13.613 -6.036,-22.579 -10.473,-21.92 -4.238,0.632 -7.807,9.896 -9.567,23.084 C 9.748,-39.912 4.234,-47.235 0.335,-45.41 -5.233,-42.797 -5.387,-22.467 0,0"
             style="fill:#003e5f;fill-opacity:1;fill-rule:nonzero;stroke:none"
             id="path144"
             inkscape:connector-curvature="0" /></g><g
           id="g146"
           transform="translate(815.9214,199.5911)"><path
             d="m 0,0 c -4.621,22.635 -12.301,32.669 -18.615,36.597 -11.443,6.466 -25.557,-22.917 -31.522,-41.373 -6.696,-20.739 -7.471,-39.133 -1.723,-41.083 4.143,-1.405 10.546,6.126 16.306,18.215 1.6,-13.675 5.265,-22.771 9.725,-22.263 4.256,0.49 8.138,9.629 10.344,22.748 4.39,-12.401 9.653,-19.907 13.61,-18.213 C 3.779,-42.95 4.624,-22.637 0,0"
             style="fill:#003e5f;fill-opacity:1;fill-rule:nonzero;stroke:none"
             id="path148"
             inkscape:connector-curvature="0" /></g><g
           id="g150"
           transform="translate(884.9489,181.4384)"><path
             d="m 0,0 -0.129,0 c -5.775,0 -10.241,3.555 -11.38,9.181 -0.221,1.094 0.337,2.107 1.25,2.375 0.908,0.259 1.829,-0.451 2.051,-1.544 0.921,-4.559 4.944,-6.234 8.109,-6.266 3.583,-0.019 7.824,1.902 8.77,6.265 0.237,1.09 1.165,1.735 2.073,1.452 C 11.652,11.18 12.195,10.24 11.958,9.15 10.557,2.696 4.965,0 0,0"
             style="fill:#b6f1e7;fill-opacity:1;fill-rule:nonzero;stroke:none"
             id="path152"
             inkscape:connector-curvature="0" /></g><g
           id="g154"
           transform="translate(848.7207,181.4384)"><path
             d="m 0,0 -0.129,0 c -5.775,0 -10.242,3.555 -11.38,9.181 -0.223,1.094 0.337,2.107 1.249,2.375 0.909,0.259 1.829,-0.451 2.05,-1.544 0.923,-4.559 4.946,-6.234 8.109,-6.266 3.585,-0.019 7.824,1.902 8.772,6.265 0.237,1.09 1.163,1.735 2.073,1.452 C 11.65,11.18 12.195,10.24 11.958,9.15 10.557,2.696 4.965,0 0,0"
             style="fill:#b6f1e7;fill-opacity:1;fill-rule:nonzero;stroke:none"
             id="path156"
             inkscape:connector-curvature="0" /></g><g
           id="g158"
           transform="translate(921.1771,181.4384)"><path
             d="m 0,0 -0.129,0 c -5.773,0 -10.241,3.555 -11.38,9.181 -0.221,1.094 0.337,2.107 1.25,2.375 0.91,0.259 1.829,-0.451 2.051,-1.544 0.922,-4.559 4.944,-6.234 8.109,-6.266 3.583,-0.019 7.826,1.902 8.771,6.265 0.236,1.09 1.164,1.735 2.072,1.452 C 11.652,11.18 12.195,10.24 11.959,9.15 10.558,2.696 4.967,0 0,0"
             style="fill:#b6f1e7;fill-opacity:1;fill-rule:nonzero;stroke:none"
             id="path160"
             inkscape:connector-curvature="0" /></g><g
           id="g162"
           transform="translate(902.4966,152.4384)"><path
             d="m 0,0 -0.129,0 c -5.773,0 -10.241,3.787 -11.378,9.414 -0.223,1.096 0.335,2.223 1.248,2.49 0.91,0.261 1.829,-0.392 2.051,-1.486 0.921,-4.557 4.944,-6.202 8.109,-6.235 3.583,-0.018 7.826,1.916 8.771,6.278 0.236,1.091 1.164,1.742 2.072,1.46 0.908,-0.283 1.451,-1.452 1.215,-2.542 C 10.557,2.926 4.965,0 0,0"
             style="fill:#b6f1e7;fill-opacity:1;fill-rule:nonzero;stroke:none"
             id="path164"
             inkscape:connector-curvature="0" /></g><g
           id="g166"
           transform="translate(867.3995,152.4384)"><path
             d="m 0,0 -0.127,0 c -5.775,0 -10.243,3.787 -11.382,9.414 -0.221,1.096 0.339,2.223 1.25,2.49 0.91,0.261 1.829,-0.392 2.052,-1.486 0.921,-4.557 4.944,-6.202 8.108,-6.235 3.585,-0.018 7.826,1.916 8.771,6.278 0.238,1.091 1.164,1.742 2.073,1.46 0.907,-0.283 1.452,-1.452 1.214,-2.542 C 10.558,2.926 4.967,0 0,0"
             style="fill:#b6f1e7;fill-opacity:1;fill-rule:nonzero;stroke:none"
             id="path168"
             inkscape:connector-curvature="0" /></g><g
           id="g170"
           transform="translate(527.5196,456.6366)"><path
             d="m 0,0 -2.835,2.699 3.231,31.366 c 0.769,7.463 -0.327,13.652 -2.461,13.808 l -0.103,0.011 c -2.128,0.157 -4.48,-5.771 -5.247,-13.23 L -10.759,2.219 -13.069,0.882 C -20.461,-3.391 -25.46,-8.039 -24.234,-9.495 l 0.06,-0.074 c 1.062,-1.262 6.431,0.284 12.647,3.492 -0.257,-6.153 0.813,-10.921 2.669,-10.978 l 0.105,-0.002 c 1.899,-0.058 3.969,4.588 4.941,10.889 5.233,-4.541 10.176,-7.262 11.594,-6.23 l 0.076,0.055 C 9.464,-11.179 5.95,-5.652 0,0"
             style="fill:#ff931e;fill-opacity:1;fill-rule:nonzero;stroke:none"
             id="path172"
             inkscape:connector-curvature="0" /></g><g
           id="g174"
           transform="translate(587.6426,457.8886)"><path
             d="M 0,0 -2.283,1.382 -5,33.58 c -0.632,7.477 -2.852,13.192 -4.983,13.052 l -0.11,-0.005 c -2.127,-0.142 -3.364,-5.995 -2.735,-13.475 l 2.63,-31.145 -2.887,-2.646 c -6.052,-5.539 -9.673,-10.998 -8.087,-12.193 l 0.079,-0.063 c 1.401,-1.05 6.389,1.576 11.701,6.016 0.846,-6.375 2.836,-11.115 4.752,-11.008 l 0.097,0.037 c 1.852,0.106 3.014,4.785 2.872,10.92 6.154,-3.321 11.496,-4.967 12.576,-3.728 l 0.065,0.076 C 12.225,-9.15 7.315,-4.404 0,0"
             style="fill:#ff931e;fill-opacity:1;fill-rule:nonzero;stroke:none"
             id="path176"
             inkscape:connector-curvature="0" /></g><g
           id="g178"
           transform="translate(454.2224,701.9798)"><path
             d="m 0,0 c 5.847,4.872 32.151,-6.819 32.151,-6.819 0,0 30.203,15.589 65.273,15.589 35.074,0 59.431,-15.589 59.431,-15.589 0,0 30.202,14.614 36.047,9.743 5.845,-4.872 -5.885,-45.233 -5.845,-60.406 0.126,-49.159 37.02,-171.466 -94.503,-172.441 C -38.97,-230.896 1.178,-106.035 2.923,-57.482 3.442,-43.101 -5.844,-4.871 0,0"
             style="fill:#a273d8;fill-opacity:1;fill-rule:nonzero;stroke:none"
             id="path180"
             inkscape:connector-curvature="0" /></g><g
           id="g182"
           transform="translate(641.2793,644.4982)"><path
             d="m 0,0 c -0.003,0.387 0.01,0.801 0.024,1.218 -8.008,16.245 -24.725,27.424 -44.06,27.424 -22.864,0 -42.078,-15.627 -47.544,-36.786 -5.463,21.159 -24.678,36.786 -47.543,36.786 -20.174,0 -37.499,-12.171 -45.053,-29.567 -0.36,-8.028 -1.689,-18.023 -3.105,-29.135 4.468,-22.52 24.329,-39.501 48.158,-39.501 22.865,0 42.08,15.63 47.543,36.789 5.466,-21.159 24.68,-36.789 47.544,-36.789 21.888,0 40.424,14.326 46.762,34.111 C 1.432,-21.831 0.024,-9.533 0,0"
             style="fill:#bc94dd;fill-opacity:1;fill-rule:nonzero;stroke:none"
             id="path184"
             inkscape:connector-curvature="0" /></g><g
           id="g186"
           transform="translate(551.1609,567.5336)"><path
             d="m 0,0 c -41.699,0 -75.503,-32.933 -75.503,-73.556 0,-0.34 0.021,-0.676 0.026,-1.013 14.685,-13.023 37.167,-21.157 71.093,-20.908 40.416,0.3 64.909,12.067 79.473,29.637 C 71.128,-28.842 39.026,0 0,0"
             style="fill:#bc94dd;fill-opacity:1;fill-rule:nonzero;stroke:none"
             id="path188"
             inkscape:connector-curvature="0" /></g><g
           id="g190"
           transform="translate(534.1131,629.8849)"><path
             d="m 0,0 c 0,-19.369 -15.704,-35.072 -35.074,-35.072 -19.371,0 -35.074,15.703 -35.074,35.072 0,19.37 15.703,35.073 35.074,35.073 C -15.704,35.073 0,19.37 0,0"
             style="fill:#ffffff;fill-opacity:1;fill-rule:nonzero;stroke:none"
             id="path192"
             inkscape:connector-curvature="0" /></g><g
           id="g194"
           transform="translate(518.583,639.9857)"><path
             d="m 0,0 c 0,-10.656 -8.636,-19.29 -19.29,-19.29 -10.654,0 -19.289,8.634 -19.289,19.29 0,10.651 8.635,19.29 19.289,19.29 C -8.636,19.29 0,10.651 0,0"
             style="fill:#000000;fill-opacity:1;fill-rule:nonzero;stroke:none"
             id="path196"
             inkscape:connector-curvature="0" /></g><g
           id="g198"
           transform="translate(502.7995,644.4818)"><path
             d="m 0,0 c 0,-1.937 -1.57,-3.506 -3.507,-3.506 -1.937,0 -3.506,1.569 -3.506,3.506 0,1.938 1.569,3.509 3.506,3.509 C -1.57,3.509 0,1.938 0,0"
             style="fill:#ffffff;fill-opacity:1;fill-rule:nonzero;stroke:none"
             id="path200"
             inkscape:connector-curvature="0" /></g><g
           id="g202"
           transform="translate(635.4335,629.8849)"><path
             d="m 0,0 c 0,-19.369 -15.703,-35.072 -35.074,-35.072 -19.369,0 -35.071,15.703 -35.071,35.072 0,19.37 15.702,35.073 35.071,35.073 C -15.703,35.073 0,19.37 0,0"
             style="fill:#ffffff;fill-opacity:1;fill-rule:nonzero;stroke:none"
             id="path204"
             inkscape:connector-curvature="0" /></g><g
           id="g206"
           transform="translate(619.9034,639.9857)"><path
             d="m 0,0 c 0,-10.656 -8.634,-19.29 -19.29,-19.29 -10.653,0 -19.291,8.634 -19.291,19.29 0,10.651 8.638,19.29 19.291,19.29 C -8.634,19.29 0,10.651 0,0"
             style="fill:#000000;fill-opacity:1;fill-rule:nonzero;stroke:none"
             id="path208"
             inkscape:connector-curvature="0" /></g><g
           id="g210"
           transform="translate(604.1212,644.4818)"><path
             d="m 0,0 c 0,-1.937 -1.57,-3.506 -3.507,-3.506 -1.938,0 -3.509,1.569 -3.509,3.506 0,1.938 1.571,3.509 3.509,3.509 C -1.57,3.509 0,1.938 0,0"
             style="fill:#ffffff;fill-opacity:1;fill-rule:nonzero;stroke:none"
             id="path212"
             inkscape:connector-curvature="0" /></g><g
           id="g214"
           transform="translate(561.3886,607.131)"><path
             d="m 0,0 c -8.731,10.24 -22.519,3.839 -23.436,0 -0.92,-3.838 12.696,-23.033 12.696,-23.033 0,0 10.684,19.195 10.74,23.033"
             style="fill:#f99525;fill-opacity:1;fill-rule:nonzero;stroke:none"
             id="path216"
             inkscape:connector-curvature="0" /></g><g
           id="g218"
           transform="translate(619.9425,539.595)"><path
             d="M 0,0 C 5.386,22.464 13.402,32.234 19.843,35.944 31.5,42.02 44.611,12.177 49.946,-6.473 c 5.989,-20.952 6.141,-39.362 0.329,-41.117 -4.186,-1.262 -10.332,6.481 -15.678,18.757 -2.063,-13.613 -6.036,-22.579 -10.473,-21.92 -4.238,0.632 -7.807,9.896 -9.567,23.084 C 9.748,-39.912 4.234,-47.235 0.335,-45.41 -5.233,-42.797 -5.387,-22.467 0,0"
             style="fill:#662d91;fill-opacity:1;fill-rule:nonzero;stroke:none"
             id="path220"
             inkscape:connector-curvature="0" /></g><g
           id="g222"
           transform="translate(480.5279,538.3236)"><path
             d="m 0,0 c -4.621,22.635 -12.301,32.669 -18.615,36.597 -11.443,6.466 -25.557,-22.917 -31.522,-41.373 -6.696,-20.739 -7.471,-39.133 -1.723,-41.083 4.143,-1.405 10.546,6.126 16.307,18.215 1.599,-13.675 5.264,-22.771 9.724,-22.263 4.256,0.49 8.138,9.629 10.344,22.748 4.39,-12.401 9.653,-19.907 13.61,-18.213 C 3.779,-42.95 4.624,-22.637 0,0"
             style="fill:#662d91;fill-opacity:1;fill-rule:nonzero;stroke:none"
             id="path224"
             inkscape:connector-curvature="0" /></g><g
           id="g226"
           transform="translate(549.4198,523.3261)"><path
             d="m 0,0 -0.129,0 c -5.775,0 -10.241,3.555 -11.38,9.181 -0.221,1.094 0.337,2.107 1.25,2.375 0.908,0.259 1.829,-0.451 2.051,-1.544 0.921,-4.559 4.943,-6.234 8.109,-6.266 3.583,-0.019 7.824,1.901 8.769,6.265 0.238,1.09 1.166,1.735 2.074,1.452 C 11.652,11.18 12.195,10.24 11.958,9.15 10.557,2.696 4.965,0 0,0"
             style="fill:#d3b7ea;fill-opacity:1;fill-rule:nonzero;stroke:none"
             id="path228"
             inkscape:connector-curvature="0" /></g><g
           id="g230"
           transform="translate(513.1916,523.3261)"><path
             d="m 0,0 -0.129,0 c -5.775,0 -10.242,3.555 -11.38,9.181 -0.223,1.094 0.337,2.107 1.249,2.375 0.909,0.259 1.829,-0.451 2.05,-1.544 0.923,-4.559 4.946,-6.234 8.109,-6.266 3.585,-0.019 7.825,1.901 8.772,6.265 0.237,1.09 1.163,1.735 2.073,1.452 C 11.65,11.18 12.195,10.24 11.958,9.15 10.557,2.696 4.965,0 0,0"
             style="fill:#d3b7ea;fill-opacity:1;fill-rule:nonzero;stroke:none"
             id="path232"
             inkscape:connector-curvature="0" /></g><g
           id="g234"
           transform="translate(585.648,523.3261)"><path
             d="m 0,0 -0.129,0 c -5.774,0 -10.241,3.555 -11.38,9.181 -0.221,1.094 0.337,2.107 1.25,2.375 0.91,0.259 1.829,-0.451 2.05,-1.544 0.923,-4.559 4.944,-6.234 8.11,-6.266 3.583,-0.019 7.826,1.901 8.771,6.265 0.236,1.09 1.164,1.735 2.072,1.452 C 11.652,11.18 12.195,10.24 11.959,9.15 10.558,2.696 4.967,0 0,0"
             style="fill:#d3b7ea;fill-opacity:1;fill-rule:nonzero;stroke:none"
             id="path236"
             inkscape:connector-curvature="0" /></g><g
           id="g238"
           transform="translate(566.9675,494.3261)"><path
             d="m 0,0 -0.129,0 c -5.773,0 -10.24,3.787 -11.378,9.414 -0.223,1.096 0.335,2.223 1.248,2.49 0.91,0.261 1.829,-0.392 2.051,-1.486 0.921,-4.557 4.944,-6.202 8.109,-6.235 3.583,-0.018 7.826,1.916 8.771,6.278 0.236,1.091 1.164,1.742 2.072,1.46 0.908,-0.283 1.451,-1.452 1.216,-2.542 C 10.557,2.926 4.965,0 0,0"
             style="fill:#d3b7ea;fill-opacity:1;fill-rule:nonzero;stroke:none"
             id="path240"
             inkscape:connector-curvature="0" /></g><g
           id="g242"
           transform="translate(531.8704,494.3261)"><path
             d="m 0,0 -0.127,0 c -5.775,0 -10.243,3.787 -11.382,9.414 -0.221,1.096 0.339,2.223 1.25,2.49 0.91,0.261 1.829,-0.392 2.052,-1.486 0.921,-4.557 4.944,-6.202 8.108,-6.235 3.585,-0.018 7.826,1.916 8.771,6.278 0.238,1.091 1.164,1.742 2.073,1.46 0.907,-0.283 1.452,-1.452 1.214,-2.542 C 10.558,2.926 4.967,0 0,0"
             style="fill:#d3b7ea;fill-opacity:1;fill-rule:nonzero;stroke:none"
             id="path244"
             inkscape:connector-curvature="0" /></g><g
           id="g246"
           transform="translate(123.7706,701.9798)"><path
             d="m 0,0 c 5.847,4.872 32.151,-6.817 32.151,-6.817 0,0 30.2,15.587 65.274,15.587 35.073,0 59.43,-15.587 59.43,-15.587 0,0 30.203,14.614 36.047,9.743 5.844,-4.871 -5.882,-45.235 -5.844,-60.406 0.123,-49.159 37.019,-171.469 -94.504,-172.44 C -38.97,-230.895 1.175,-106.035 2.923,-57.48 3.439,-43.099 -5.845,-4.871 0,0"
             style="fill:#4d4d4d;fill-opacity:1;fill-rule:nonzero;stroke:none"
             id="path248"
             inkscape:connector-curvature="0" /></g><g
           id="g250"
           transform="translate(193.7855,456.6366)"><path
             d="m 0,0 -2.835,2.699 3.231,31.366 c 0.769,7.463 -0.327,13.652 -2.46,13.808 l -0.104,0.011 c -2.128,0.157 -4.479,-5.771 -5.247,-13.23 L -10.759,2.219 -13.069,0.882 C -20.461,-3.391 -25.46,-8.039 -24.234,-9.495 l 0.06,-0.074 c 1.062,-1.262 6.431,0.284 12.647,3.492 -0.257,-6.153 0.813,-10.921 2.669,-10.978 l 0.105,-0.002 c 1.899,-0.058 3.969,4.588 4.942,10.889 5.232,-4.541 10.175,-7.262 11.593,-6.23 l 0.076,0.055 C 9.464,-11.179 5.95,-5.652 0,0"
             style="fill:#ff931e;fill-opacity:1;fill-rule:nonzero;stroke:none"
             id="path252"
             inkscape:connector-curvature="0" /></g><g
           id="g254"
           transform="translate(253.9085,457.8886)"><path
             d="M 0,0 -2.283,1.382 -5,33.58 c -0.632,7.477 -2.852,13.192 -4.983,13.052 l -0.11,-0.005 c -2.127,-0.142 -3.364,-5.995 -2.735,-13.475 l 2.63,-31.145 -2.887,-2.646 c -6.052,-5.539 -9.673,-10.998 -8.087,-12.193 l 0.079,-0.063 c 1.401,-1.05 6.389,1.576 11.701,6.016 0.846,-6.375 2.836,-11.115 4.752,-11.008 l 0.097,0.037 c 1.852,0.106 3.014,4.785 2.872,10.92 6.154,-3.321 11.496,-4.967 12.576,-3.728 l 0.065,0.076 C 12.225,-9.15 7.314,-4.404 0,0"
             style="fill:#ff931e;fill-opacity:1;fill-rule:nonzero;stroke:none"
             id="path256"
             inkscape:connector-curvature="0" /></g><g
           id="g258"
           transform="translate(311.2241,644.4982)"><path
             d="m 0,0 c -0.003,0.387 0.01,0.801 0.024,1.218 -8.008,16.245 -24.725,27.424 -44.06,27.424 -22.864,0 -42.078,-15.627 -47.544,-36.786 -5.463,21.159 -24.678,36.786 -47.543,36.786 -20.174,0 -37.499,-12.171 -45.053,-29.567 -0.36,-8.028 -1.689,-18.023 -3.105,-29.135 4.468,-22.52 24.329,-39.501 48.158,-39.501 22.865,0 42.08,15.63 47.543,36.789 5.466,-21.159 24.68,-36.789 47.544,-36.789 21.888,0 40.424,14.326 46.762,34.111 C 1.432,-21.831 0.024,-9.533 0,0"
             style="fill:#666666;fill-opacity:1;fill-rule:nonzero;stroke:none"
             id="path260"
             inkscape:connector-curvature="0" /></g><g
           id="g262"
           transform="translate(220.7097,567.5342)"><path
             d="m 0,0 c -41.7,0 -75.503,-32.933 -75.503,-73.553 0,-0.343 0.021,-0.676 0.024,-1.018 14.687,-13.021 37.168,-21.155 71.094,-20.904 40.416,0.296 64.911,12.065 79.474,29.633 C 71.128,-28.842 39.023,0 0,0"
             style="fill:#666666;fill-opacity:1;fill-rule:nonzero;stroke:none"
             id="path264"
             inkscape:connector-curvature="0" /></g><g
           id="g266"
           transform="translate(203.6613,629.8867)"><path
             d="m 0,0 c 0,-19.371 -15.704,-35.075 -35.073,-35.075 -19.371,0 -35.075,15.704 -35.075,35.075 0,19.37 15.704,35.074 35.075,35.074 C -15.704,35.074 0,19.37 0,0"
             style="fill:#ffffff;fill-opacity:1;fill-rule:nonzero;stroke:none"
             id="path268"
             inkscape:connector-curvature="0" /></g><g
           id="g270"
           transform="translate(177.3473,638.2644)"><path
             d="m 0,0 c 0,-10.653 -8.637,-19.292 -19.29,-19.292 -10.656,0 -19.29,8.639 -19.29,19.292 0,10.653 8.634,19.292 19.29,19.292 C -8.637,19.292 0,10.653 0,0"
             style="fill:#000000;fill-opacity:1;fill-rule:nonzero;stroke:none"
             id="path272"
             inkscape:connector-curvature="0" /></g><g
           id="g274"
           transform="translate(150.8452,645.0834)"><path
             d="m 0,0 c 0,-1.936 -1.57,-3.508 -3.507,-3.508 -1.934,0 -3.505,1.572 -3.505,3.508 0,1.937 1.571,3.507 3.505,3.507 C -1.57,3.507 0,1.937 0,0"
             style="fill:#ffffff;fill-opacity:1;fill-rule:nonzero;stroke:none"
             id="path276"
             inkscape:connector-curvature="0" /></g><g
           id="g278"
           transform="translate(304.981,629.8867)"><path
             d="m 0,0 c 0,-19.371 -15.702,-35.075 -35.073,-35.075 -19.371,0 -35.074,15.704 -35.074,35.075 0,19.37 15.703,35.074 35.074,35.074 C -15.702,35.074 0,19.37 0,0"
             style="fill:#ffffff;fill-opacity:1;fill-rule:nonzero;stroke:none"
             id="path280"
             inkscape:connector-curvature="0" /></g><g
           id="g282"
           transform="translate(278.6671,638.2644)"><path
             d="m 0,0 c 0,-10.653 -8.634,-19.292 -19.29,-19.292 -10.653,0 -19.29,8.639 -19.29,19.292 0,10.653 8.637,19.292 19.29,19.292 C -8.634,19.292 0,10.653 0,0"
             style="fill:#000000;fill-opacity:1;fill-rule:nonzero;stroke:none"
             id="path284"
             inkscape:connector-curvature="0" /></g><g
           id="g286"
           transform="translate(252.1675,645.0834)"><path
             d="m 0,0 c 0,-1.936 -1.57,-3.508 -3.507,-3.508 -1.937,0 -3.507,1.572 -3.507,3.508 0,1.937 1.57,3.507 3.507,3.507 C -1.57,3.507 0,1.937 0,0"
             style="fill:#ffffff;fill-opacity:1;fill-rule:nonzero;stroke:none"
             id="path288"
             inkscape:connector-curvature="0" /></g><g
           id="g290"
           transform="translate(230.9375,607.1336)"><path
             d="m 0,0 c -8.731,10.237 -22.519,3.839 -23.437,0 -0.919,-3.839 12.696,-23.035 12.696,-23.035 0,0 10.685,19.196 10.741,23.035"
             style="fill:#f99525;fill-opacity:1;fill-rule:nonzero;stroke:none"
             id="path292"
             inkscape:connector-curvature="0" /></g><g
           id="g294"
           transform="translate(286.9319,542.6212)"><path
             d="M 0,0 C 5.386,22.464 13.402,32.234 19.843,35.944 31.5,42.02 44.611,12.177 49.946,-6.473 c 5.99,-20.952 6.141,-39.362 0.329,-41.117 -4.186,-1.262 -10.332,6.48 -15.678,18.757 -2.063,-13.613 -6.036,-22.579 -10.473,-21.92 -4.238,0.632 -7.807,9.896 -9.567,23.084 C 9.748,-39.912 4.234,-47.235 0.335,-45.41 -5.233,-42.797 -5.387,-22.467 0,0"
             style="fill:#000000;fill-opacity:1;fill-rule:nonzero;stroke:none"
             id="path296"
             inkscape:connector-curvature="0" /></g><g
           id="g298"
           transform="translate(147.5173,541.3498)"><path
             d="m 0,0 c -4.621,22.635 -12.301,32.669 -18.615,36.597 -11.443,6.466 -25.557,-22.917 -31.522,-41.373 -6.696,-20.739 -7.471,-39.133 -1.723,-41.083 4.143,-1.405 10.546,6.126 16.307,18.215 1.599,-13.675 5.264,-22.771 9.724,-22.263 4.256,0.49 8.138,9.629 10.344,22.748 4.391,-12.401 9.653,-19.907 13.61,-18.213 C 3.779,-42.95 4.624,-22.637 0,0"
             style="fill:#000000;fill-opacity:1;fill-rule:nonzero;stroke:none"
             id="path300"
             inkscape:connector-curvature="0" /></g><g
           id="g302"
           transform="translate(220.2743,523.326)"><path
             d="m 0,0 -0.129,0 c -5.775,0 -10.241,3.555 -11.38,9.181 -0.221,1.094 0.337,2.107 1.25,2.375 0.908,0.259 1.829,-0.45 2.051,-1.544 0.921,-4.559 4.944,-6.234 8.109,-6.266 3.583,-0.018 7.824,1.902 8.77,6.265 0.237,1.09 1.165,1.735 2.073,1.452 C 11.652,11.18 12.195,10.24 11.958,9.15 10.557,2.696 4.965,0 0,0"
             style="fill:#f2f2f2;fill-opacity:1;fill-rule:nonzero;stroke:none"
             id="path304"
             inkscape:connector-curvature="0" /></g><g
           id="g306"
           transform="translate(184.0461,523.326)"><path
             d="m 0,0 -0.129,0 c -5.775,0 -10.242,3.555 -11.38,9.181 -0.223,1.094 0.337,2.107 1.249,2.375 0.909,0.259 1.829,-0.45 2.05,-1.544 0.923,-4.559 4.946,-6.234 8.109,-6.266 3.585,-0.018 7.824,1.902 8.772,6.265 0.237,1.09 1.163,1.735 2.073,1.452 C 11.65,11.18 12.195,10.24 11.958,9.15 10.557,2.696 4.965,0 0,0"
             style="fill:#f2f2f2;fill-opacity:1;fill-rule:nonzero;stroke:none"
             id="path308"
             inkscape:connector-curvature="0" /></g><g
           id="g310"
           transform="translate(256.5025,523.326)"><path
             d="m 0,0 -0.129,0 c -5.773,0 -10.241,3.555 -11.38,9.181 -0.221,1.094 0.337,2.107 1.25,2.375 0.91,0.259 1.829,-0.45 2.051,-1.544 0.922,-4.559 4.943,-6.234 8.109,-6.266 3.583,-0.018 7.826,1.902 8.771,6.265 0.236,1.09 1.164,1.735 2.072,1.452 C 11.652,11.18 12.195,10.24 11.959,9.15 10.558,2.696 4.967,0 0,0"
             style="fill:#f2f2f2;fill-opacity:1;fill-rule:nonzero;stroke:none"
             id="path312"
             inkscape:connector-curvature="0" /></g><g
           id="g314"
           transform="translate(237.822,494.326)"><path
             d="m 0,0 -0.129,0 c -5.773,0 -10.241,3.787 -11.378,9.414 -0.223,1.096 0.335,2.223 1.248,2.49 0.91,0.261 1.829,-0.392 2.051,-1.486 0.921,-4.557 4.944,-6.202 8.109,-6.235 3.583,-0.018 7.826,1.916 8.771,6.278 0.236,1.091 1.164,1.742 2.072,1.46 0.908,-0.283 1.451,-1.452 1.216,-2.542 C 10.557,2.926 4.965,0 0,0"
             style="fill:#f2f2f2;fill-opacity:1;fill-rule:nonzero;stroke:none"
             id="path316"
             inkscape:connector-curvature="0" /></g><g
           id="g318"
           transform="translate(202.7249,494.326)"><path
             d="m 0,0 -0.127,0 c -5.775,0 -10.242,3.787 -11.382,9.414 -0.221,1.096 0.339,2.223 1.25,2.49 0.91,0.261 1.829,-0.392 2.052,-1.486 0.921,-4.557 4.944,-6.202 8.108,-6.235 3.585,-0.018 7.826,1.916 8.771,6.278 0.238,1.091 1.164,1.742 2.073,1.46 0.907,-0.283 1.452,-1.452 1.214,-2.542 C 10.558,2.926 4.967,0 0,0"
             style="fill:#f2f2f2;fill-opacity:1;fill-rule:nonzero;stroke:none"
             id="path320"
             inkscape:connector-curvature="0" /></g><g
           id="g322"
           transform="translate(862.0262,456.6366)"><path
             d="m 0,0 -2.835,2.699 3.231,31.366 c 0.769,7.463 -0.327,13.652 -2.46,13.808 l -0.104,0.011 c -2.128,0.157 -4.479,-5.771 -5.247,-13.23 L -10.759,2.219 -13.069,0.882 C -20.461,-3.391 -25.46,-8.039 -24.234,-9.495 l 0.06,-0.074 c 1.062,-1.262 6.431,0.284 12.647,3.492 -0.257,-6.153 0.813,-10.921 2.669,-10.978 l 0.105,-0.002 c 1.9,-0.058 3.969,4.588 4.942,10.889 5.232,-4.541 10.175,-7.262 11.593,-6.23 l 0.076,0.055 C 9.464,-11.179 5.95,-5.652 0,0"
             style="fill:#ff931e;fill-opacity:1;fill-rule:nonzero;stroke:none"
             id="path324"
             inkscape:connector-curvature="0" /></g><g
           id="g326"
           transform="translate(922.1493,457.8886)"><path
             d="M 0,0 -2.283,1.382 -5,33.58 c -0.632,7.477 -2.853,13.192 -4.983,13.052 l -0.11,-0.005 c -2.127,-0.142 -3.364,-5.995 -2.735,-13.475 l 2.63,-31.145 -2.887,-2.646 c -6.052,-5.539 -9.673,-10.998 -8.087,-12.193 l 0.079,-0.063 c 1.401,-1.05 6.389,1.576 11.701,6.016 0.846,-6.375 2.836,-11.115 4.752,-11.008 l 0.097,0.037 c 1.852,0.106 3.014,4.785 2.872,10.92 6.154,-3.321 11.496,-4.967 12.576,-3.728 l 0.065,0.076 C 12.225,-9.15 7.314,-4.404 0,0"
             style="fill:#ff931e;fill-opacity:1;fill-rule:nonzero;stroke:none"
             id="path328"
             inkscape:connector-curvature="0" /></g><g
           id="g330"
           transform="translate(787.3447,701.9811)"><path
             d="m 0,0 c 5.847,4.871 32.151,-6.818 32.151,-6.818 0,0 30.2,15.587 65.273,15.587 35.074,0 59.431,-15.587 59.431,-15.587 0,0 30.199,14.614 36.046,9.743 5.845,-4.872 -5.885,-45.235 -5.847,-60.403 0.126,-49.162 37.023,-171.468 -94.501,-172.443 C -38.971,-230.894 1.175,-106.036 2.923,-57.478 3.439,-43.099 -5.847,-4.872 0,0"
             style="fill:#5f3713;fill-opacity:1;fill-rule:nonzero;stroke:none"
             id="path332"
             inkscape:connector-curvature="0" /></g><g
           id="g334"
           transform="translate(974.399,644.5032)"><path
             d="M 0,0 C 0,0.383 0.013,0.799 0.027,1.217 -7.985,17.461 -24.7,28.64 -44.033,28.64 c -22.865,0 -42.081,-15.629 -47.544,-36.784 -5.467,21.155 -24.68,36.784 -47.545,36.784 -20.175,0 -37.501,-12.168 -45.055,-29.57 -0.359,-8.025 -1.686,-18.019 -3.101,-29.134 4.467,-22.521 24.324,-39.499 48.156,-39.499 22.865,0 42.078,15.628 47.545,36.787 5.463,-21.159 24.679,-36.787 47.544,-36.787 21.885,0 40.423,14.326 46.759,34.108 C 1.432,-21.835 0.027,-9.538 0,0"
             style="fill:#fcd2ac;fill-opacity:1;fill-rule:nonzero;stroke:none"
             id="path336"
             inkscape:connector-curvature="0" /></g><g
           id="g338"
           transform="translate(884.282,567.5361)"><path
             d="m 0,0 c -41.698,0 -75.504,-32.931 -75.504,-73.556 0,-0.34 0.023,-0.676 0.024,-1.013 14.689,-13.022 37.17,-21.157 71.095,-20.907 40.416,0.299 64.91,12.066 79.475,29.636 C 71.13,-28.841 39.023,0 0,0"
             style="fill:#fcd2ac;fill-opacity:1;fill-rule:nonzero;stroke:none"
             id="path340"
             inkscape:connector-curvature="0" /></g><g
           id="g342"
           transform="translate(894.5109,607.1342)"><path
             d="m 0,0 c -8.731,10.237 -22.518,3.841 -23.438,0 -0.92,-3.839 12.694,-23.036 12.694,-23.036 0,0 10.687,19.197 10.744,23.036"
             style="fill:#f99525;fill-opacity:1;fill-rule:nonzero;stroke:none"
             id="path344"
             inkscape:connector-curvature="0" /></g><g
           id="g346"
           transform="translate(866.9325,631.8328)"><path
             d="m 0,0 c 0,-19.371 -15.703,-35.071 -35.074,-35.071 -19.37,0 -35.071,15.7 -35.071,35.071 0,19.37 15.701,35.074 35.071,35.074 C -15.703,35.074 0,19.37 0,0"
             style="fill:#ffffff;fill-opacity:1;fill-rule:nonzero;stroke:none"
             id="path348"
             inkscape:connector-curvature="0" /></g><g
           id="g350"
           transform="translate(851.1504,631.8861)"><path
             d="m 0,0 c 0,-10.653 -8.638,-19.29 -19.292,-19.29 -10.653,0 -19.289,8.637 -19.289,19.29 0,10.654 8.636,19.29 19.289,19.29 C -8.638,19.29 0,10.654 0,0"
             style="fill:#000000;fill-opacity:1;fill-rule:nonzero;stroke:none"
             id="path352"
             inkscape:connector-curvature="0" /></g><g
           id="g354"
           transform="translate(824.6494,638.7056)"><path
             d="m 0,0 c 0,-1.937 -1.57,-3.509 -3.507,-3.509 -1.937,0 -3.506,1.572 -3.506,3.509 0,1.938 1.569,3.508 3.506,3.508 C -1.57,3.508 0,1.938 0,0"
             style="fill:#ffffff;fill-opacity:1;fill-rule:nonzero;stroke:none"
             id="path356"
             inkscape:connector-curvature="0" /></g><g
           id="g358"
           transform="translate(933.3136,596.7616)"><path
             d="m 0,0 c -19.371,0 -35.071,15.703 -35.071,35.074 0,19.37 15.7,35.071 35.071,35.071 19.37,0 35.074,-15.701 35.074,-35.071 C 35.074,15.703 19.37,0 0,0"
             style="fill:#ffffff;fill-opacity:1;fill-rule:nonzero;stroke:none"
             id="path360"
             inkscape:connector-curvature="0" /></g><g
           id="g362"
           transform="translate(933.3669,612.5437)"><path
             d="m 0,0 c -10.653,0 -19.29,8.638 -19.29,19.292 0,10.653 8.637,19.289 19.29,19.289 10.654,0 19.29,-8.636 19.29,-19.289 C 19.29,8.638 10.654,0 0,0"
             style="fill:#000000;fill-opacity:1;fill-rule:nonzero;stroke:none"
             id="path364"
             inkscape:connector-curvature="0" /></g><g
           id="g366"
           transform="translate(940.1864,639.0447)"><path
             d="m 0,0 c -1.937,0 -3.509,1.57 -3.509,3.507 0,1.937 1.572,3.507 3.509,3.507 1.938,0 3.508,-1.57 3.508,-3.507 C 3.508,1.57 1.938,0 0,0"
             style="fill:#ffffff;fill-opacity:1;fill-rule:nonzero;stroke:none"
             id="path368"
             inkscape:connector-curvature="0" /></g><g
           id="g370"
           transform="translate(949.4151,542.4156)"><path
             d="M 0,0 C 5.386,22.464 13.402,32.234 19.843,35.944 31.5,42.02 44.611,12.177 49.946,-6.473 c 5.989,-20.952 6.141,-39.362 0.329,-41.117 -4.186,-1.262 -10.332,6.481 -15.678,18.757 -2.063,-13.613 -6.036,-22.579 -10.473,-21.92 -4.238,0.632 -7.807,9.896 -9.567,23.084 C 9.748,-39.912 4.234,-47.235 0.335,-45.41 -5.233,-42.797 -5.387,-22.467 0,0"
             style="fill:#8c6239;fill-opacity:1;fill-rule:nonzero;stroke:none"
             id="path372"
             inkscape:connector-curvature="0" /></g><g
           id="g374"
           transform="translate(810.0005,541.1442)"><path
             d="m 0,0 c -4.621,22.635 -12.301,32.669 -18.615,36.597 -11.443,6.466 -25.557,-22.917 -31.522,-41.373 -6.696,-20.739 -7.471,-39.133 -1.723,-41.083 4.143,-1.405 10.546,6.126 16.307,18.215 1.599,-13.675 5.264,-22.771 9.724,-22.263 4.256,0.49 8.138,9.629 10.344,22.748 4.391,-12.401 9.653,-19.907 13.61,-18.213 C 3.779,-42.95 4.624,-22.637 0,0"
             style="fill:#8c6239;fill-opacity:1;fill-rule:nonzero;stroke:none"
             id="path376"
             inkscape:connector-curvature="0" /></g><g
           id="g378"
           transform="translate(884.9489,523.3261)"><path
             d="m 0,0 -0.129,0 c -5.775,0 -10.241,3.555 -11.38,9.181 -0.221,1.094 0.337,2.107 1.25,2.375 0.908,0.259 1.829,-0.451 2.051,-1.544 0.921,-4.559 4.944,-6.234 8.109,-6.266 3.583,-0.019 7.824,1.901 8.77,6.265 0.237,1.09 1.165,1.735 2.073,1.452 C 11.652,11.18 12.195,10.24 11.958,9.15 10.557,2.696 4.965,0 0,0"
             style="fill:#5f3713;fill-opacity:1;fill-rule:nonzero;stroke:none"
             id="path380"
             inkscape:connector-curvature="0" /></g><g
           id="g382"
           transform="translate(848.7207,523.3261)"><path
             d="m 0,0 -0.129,0 c -5.775,0 -10.242,3.555 -11.38,9.181 -0.223,1.094 0.337,2.107 1.249,2.375 0.909,0.259 1.829,-0.451 2.05,-1.544 0.923,-4.559 4.946,-6.234 8.109,-6.266 3.585,-0.019 7.824,1.901 8.772,6.265 0.237,1.09 1.163,1.735 2.073,1.452 C 11.65,11.18 12.195,10.24 11.958,9.15 10.557,2.696 4.965,0 0,0"
             style="fill:#5f3713;fill-opacity:1;fill-rule:nonzero;stroke:none"
             id="path384"
             inkscape:connector-curvature="0" /></g><g
           id="g386"
           transform="translate(921.1771,523.3261)"><path
             d="m 0,0 -0.129,0 c -5.773,0 -10.241,3.555 -11.38,9.181 -0.221,1.094 0.337,2.107 1.25,2.375 0.91,0.259 1.829,-0.451 2.051,-1.544 0.922,-4.559 4.944,-6.234 8.109,-6.266 3.583,-0.019 7.826,1.901 8.771,6.265 0.236,1.09 1.164,1.735 2.072,1.452 C 11.652,11.18 12.195,10.24 11.959,9.15 10.558,2.696 4.967,0 0,0"
             style="fill:#5f3713;fill-opacity:1;fill-rule:nonzero;stroke:none"
             id="path388"
             inkscape:connector-curvature="0" /></g><g
           id="g390"
           transform="translate(902.4966,494.3261)"><path
             d="m 0,0 -0.129,0 c -5.773,0 -10.241,3.787 -11.378,9.414 -0.223,1.096 0.335,2.223 1.248,2.49 0.91,0.261 1.829,-0.392 2.051,-1.486 0.921,-4.557 4.944,-6.202 8.109,-6.235 3.583,-0.018 7.826,1.916 8.771,6.278 0.236,1.091 1.164,1.742 2.072,1.46 0.908,-0.283 1.451,-1.452 1.215,-2.542 C 10.557,2.926 4.965,0 0,0"
             style="fill:#5f3713;fill-opacity:1;fill-rule:nonzero;stroke:none"
             id="path392"
             inkscape:connector-curvature="0" /></g><g
           id="g394"
           transform="translate(867.3995,494.3261)"><path
             d="m 0,0 -0.127,0 c -5.775,0 -10.243,3.787 -11.382,9.414 -0.221,1.096 0.339,2.223 1.25,2.49 0.91,0.261 1.829,-0.392 2.052,-1.486 0.921,-4.557 4.944,-6.202 8.108,-6.235 3.585,-0.018 7.826,1.916 8.771,6.278 0.238,1.091 1.164,1.742 2.073,1.46 0.907,-0.283 1.452,-1.452 1.214,-2.542 C 10.558,2.926 4.967,0 0,0"
             style="fill:#5f3713;fill-opacity:1;fill-rule:nonzero;stroke:none"
             id="path396"
             inkscape:connector-curvature="0" /></g><g
           id="g398"
           transform="translate(193.7855,114.4604)"><path
             d="m 0,0 -2.835,2.699 3.231,31.365 c 0.769,7.464 -0.327,13.653 -2.46,13.809 l -0.104,0.011 c -2.128,0.157 -4.479,-5.771 -5.247,-13.23 L -10.759,2.219 -13.069,0.882 C -20.461,-3.391 -25.46,-8.039 -24.234,-9.495 l 0.06,-0.074 c 1.062,-1.262 6.431,0.284 12.647,3.492 -0.257,-6.153 0.813,-10.921 2.669,-10.978 l 0.105,-0.002 c 1.899,-0.058 3.969,4.588 4.942,10.889 5.232,-4.541 10.175,-7.262 11.593,-6.23 l 0.076,0.055 C 9.464,-11.179 5.95,-5.652 0,0"
             style="fill:#ff931e;fill-opacity:1;fill-rule:nonzero;stroke:none"
             id="path400"
             inkscape:connector-curvature="0" /></g><g
           id="g402"
           transform="translate(253.9085,115.7124)"><path
             d="M 0,0 -2.283,1.382 -5,33.58 c -0.632,7.477 -2.852,13.192 -4.983,13.052 l -0.11,-0.005 c -2.127,-0.142 -3.364,-5.995 -2.735,-13.475 l 2.63,-31.145 -2.887,-2.646 c -6.052,-5.539 -9.673,-10.998 -8.087,-12.193 l 0.079,-0.063 c 1.401,-1.05 6.389,1.576 11.701,6.016 0.846,-6.375 2.836,-11.115 4.752,-11.008 l 0.097,0.037 c 1.852,0.106 3.014,4.786 2.872,10.92 6.154,-3.321 11.496,-4.966 12.576,-3.728 l 0.065,0.076 C 12.225,-9.15 7.314,-4.404 0,0"
             style="fill:#ff931e;fill-opacity:1;fill-rule:nonzero;stroke:none"
             id="path404"
             inkscape:connector-curvature="0" /></g><g
           id="g406"
           transform="translate(303.7529,359.4779)"><path
             d="m 0,0 c -5.846,4.871 -32.151,-6.819 -32.151,-6.819 0,0 -30.2,15.589 -65.274,15.589 -35.073,0 -59.43,-15.589 -59.43,-15.589 0,0 -30.2,14.614 -36.045,9.742 -5.845,-4.87 5.883,-45.232 5.845,-60.402 -0.126,-49.16 -37.021,-171.468 94.502,-172.441 131.523,-0.977 91.378,123.885 89.63,172.441 C -3.439,-43.101 5.847,-4.871 0,0"
             style="fill:#bad234;fill-opacity:1;fill-rule:nonzero;stroke:none"
             id="path408"
             inkscape:connector-curvature="0" /></g><g
           id="g410"
           transform="translate(300.995,301.6649)"><path
             d="m 0,0 c 0,0.385 0.013,0.799 0.024,1.217 -8.009,16.242 -24.725,27.425 -44.061,27.425 -22.862,0 -42.077,-15.631 -47.541,-36.787 -5.466,21.156 -24.681,36.787 -47.545,36.787 -20.174,0 -37.5,-12.173 -45.053,-29.569 -0.36,-8.028 -1.687,-18.02 -3.105,-29.136 4.47,-22.521 24.327,-39.5 48.158,-39.5 22.864,0 42.079,15.627 47.545,36.788 5.464,-21.161 24.679,-36.788 47.541,-36.788 21.889,0 40.426,14.329 46.763,34.108 C 1.431,-21.834 0.024,-9.538 0,0"
             style="fill:#8cc63f;fill-opacity:1;fill-rule:nonzero;stroke:none"
             id="path412"
             inkscape:connector-curvature="0" /></g><g
           id="g414"
           transform="translate(215.4888,224.6991)"><path
             d="m 0,0 c -41.697,0 -75.503,-32.933 -75.503,-73.558 0,-0.337 0.023,-0.674 0.025,-1.014 14.688,-13.02 37.17,-21.156 71.094,-20.905 40.417,0.3 64.909,12.068 79.474,29.636 C 71.131,-28.843 39.024,0 0,0"
             style="fill:#f7f9b9;fill-opacity:1;fill-rule:nonzero;stroke:none"
             id="path416"
             inkscape:connector-curvature="0" /></g><g
           id="g418"
           transform="translate(278.2506,209.3603)"><path
             d="M 0,0 C 5.386,22.464 13.402,32.234 19.843,35.944 31.5,42.02 44.611,12.177 49.946,-6.473 c 5.989,-20.951 6.141,-39.362 0.329,-41.117 -4.186,-1.262 -10.332,6.481 -15.678,18.757 -2.063,-13.613 -6.036,-22.579 -10.473,-21.92 -4.238,0.632 -7.807,9.896 -9.567,23.084 C 9.748,-39.912 4.234,-47.235 0.335,-45.41 -5.233,-42.797 -5.387,-22.467 0,0"
             style="fill:#8cc63f;fill-opacity:1;fill-rule:nonzero;stroke:none"
             id="path420"
             inkscape:connector-curvature="0" /></g><g
           id="g422"
           transform="translate(138.836,208.089)"><path
             d="m 0,0 c -4.621,22.634 -12.301,32.669 -18.615,36.597 -11.443,6.466 -25.557,-22.917 -31.522,-41.373 -6.696,-20.739 -7.471,-39.133 -1.723,-41.083 4.143,-1.405 10.546,6.126 16.307,18.215 1.599,-13.675 5.264,-22.771 9.724,-22.263 4.256,0.49 8.138,9.629 10.344,22.748 4.39,-12.401 9.653,-19.907 13.61,-18.213 C 3.779,-42.95 4.624,-22.637 0,0"
             style="fill:#8cc63f;fill-opacity:1;fill-rule:nonzero;stroke:none"
             id="path424"
             inkscape:connector-curvature="0" /></g><g
           id="g426"
           transform="translate(209.659,181.4384)"><path
             d="m 0,0 -0.129,0 c -5.775,0 -10.241,3.555 -11.38,9.181 -0.221,1.094 0.337,2.107 1.25,2.375 0.908,0.259 1.829,-0.451 2.051,-1.544 0.921,-4.559 4.943,-6.234 8.109,-6.266 3.583,-0.019 7.824,1.902 8.769,6.265 0.238,1.09 1.166,1.735 2.074,1.452 C 11.652,11.18 12.195,10.24 11.958,9.15 10.557,2.696 4.965,0 0,0"
             style="fill:#7ac943;fill-opacity:1;fill-rule:nonzero;stroke:none"
             id="path428"
             inkscape:connector-curvature="0" /></g><g
           id="g430"
           transform="translate(173.4308,181.4384)"><path
             d="m 0,0 -0.128,0 c -5.776,0 -10.243,3.555 -11.381,9.181 -0.223,1.094 0.337,2.107 1.249,2.375 0.909,0.259 1.829,-0.451 2.05,-1.544 0.923,-4.559 4.946,-6.234 8.109,-6.266 3.585,-0.019 7.825,1.902 8.772,6.265 0.237,1.09 1.163,1.735 2.073,1.452 C 11.65,11.18 12.195,10.24 11.958,9.15 10.557,2.696 4.965,0 0,0"
             style="fill:#7ac943;fill-opacity:1;fill-rule:nonzero;stroke:none"
             id="path432"
             inkscape:connector-curvature="0" /></g><g
           id="g434"
           transform="translate(245.8872,181.4384)"><path
             d="m 0,0 -0.129,0 c -5.773,0 -10.241,3.555 -11.38,9.181 -0.221,1.094 0.337,2.107 1.25,2.375 0.91,0.259 1.829,-0.451 2.051,-1.544 0.922,-4.559 4.944,-6.234 8.109,-6.266 3.583,-0.019 7.826,1.902 8.771,6.265 0.236,1.09 1.164,1.735 2.072,1.452 C 11.652,11.18 12.195,10.24 11.959,9.15 10.558,2.696 4.967,0 0,0"
             style="fill:#7ac943;fill-opacity:1;fill-rule:nonzero;stroke:none"
             id="path436"
             inkscape:connector-curvature="0" /></g><g
           id="g438"
           transform="translate(227.2067,152.4384)"><path
             d="m 0,0 -0.129,0 c -5.773,0 -10.241,3.787 -11.378,9.414 -0.223,1.096 0.335,2.223 1.248,2.49 0.91,0.261 1.829,-0.392 2.051,-1.486 0.921,-4.557 4.944,-6.202 8.109,-6.235 3.583,-0.018 7.826,1.916 8.771,6.278 0.236,1.091 1.164,1.742 2.072,1.46 0.908,-0.283 1.451,-1.452 1.215,-2.542 C 10.557,2.926 4.965,0 0,0"
             style="fill:#7ac943;fill-opacity:1;fill-rule:nonzero;stroke:none"
             id="path440"
             inkscape:connector-curvature="0" /></g><g
           id="g442"
           transform="translate(192.1096,152.4384)"><path
             d="m 0,0 -0.127,0 c -5.775,0 -10.242,3.787 -11.382,9.414 -0.221,1.096 0.339,2.223 1.25,2.49 0.91,0.261 1.829,-0.392 2.052,-1.486 0.921,-4.557 4.944,-6.202 8.108,-6.235 3.585,-0.018 7.826,1.916 8.771,6.278 0.238,1.091 1.164,1.742 2.073,1.46 0.907,-0.283 1.452,-1.452 1.214,-2.542 C 10.558,2.926 4.967,0 0,0"
             style="fill:#7ac943;fill-opacity:1;fill-rule:nonzero;stroke:none"
             id="path444"
             inkscape:connector-curvature="0" /></g><g
           id="g446"
           transform="translate(223.8648,287.3848)"><path
             d="m 0,0 c 0,-19.371 15.704,-35.074 35.072,-35.074 19.372,0 35.074,15.703 35.074,35.074 0,19.371 -15.702,35.071 -35.074,35.071 C 15.704,35.071 0,19.371 0,0"
             style="fill:#ffffff;fill-opacity:1;fill-rule:nonzero;stroke:none"
             id="path448"
             inkscape:connector-curvature="0" /></g><g
           id="g450"
           transform="translate(249.0095,281.206)"><path
             d="m 0,0 c 0,-10.656 8.635,-19.293 19.29,-19.293 10.655,0 19.289,8.637 19.289,19.293 0,10.652 -8.634,19.29 -19.289,19.29 C 8.635,19.29 0,10.652 0,0"
             style="fill:#000000;fill-opacity:1;fill-rule:nonzero;stroke:none"
             id="path452"
             inkscape:connector-curvature="0" /></g><g
           id="g454"
           transform="translate(275.5105,288.0237)"><path
             d="m 0,0 c 0,-1.938 1.57,-3.508 3.506,-3.508 1.937,0 3.506,1.57 3.506,3.508 0,1.936 -1.569,3.507 -3.506,3.507 C 1.57,3.507 0,1.936 0,0"
             style="fill:#ffffff;fill-opacity:1;fill-rule:nonzero;stroke:none"
             id="path456"
             inkscape:connector-curvature="0" /></g><g
           id="g458"
           transform="translate(122.5425,287.3848)"><path
             d="m 0,0 c 0,-19.371 15.702,-35.074 35.073,-35.074 19.371,0 35.074,15.703 35.074,35.074 0,19.371 -15.703,35.071 -35.074,35.071 C 15.702,35.071 0,19.371 0,0"
             style="fill:#ffffff;fill-opacity:1;fill-rule:nonzero;stroke:none"
             id="path460"
             inkscape:connector-curvature="0" /></g><g
           id="g462"
           transform="translate(147.6878,281.206)"><path
             d="m 0,0 c 0,-10.656 8.637,-19.293 19.29,-19.293 10.653,0 19.29,8.637 19.29,19.293 0,10.652 -8.637,19.29 -19.29,19.29 C 8.637,19.29 0,10.652 0,0"
             style="fill:#000000;fill-opacity:1;fill-rule:nonzero;stroke:none"
             id="path464"
             inkscape:connector-curvature="0" /></g><g
           id="g466"
           transform="translate(174.1875,288.0237)"><path
             d="m 0,0 c 0,-1.938 1.57,-3.508 3.508,-3.508 1.936,0 3.506,1.57 3.506,3.508 0,1.936 -1.57,3.507 -3.506,3.507 C 1.57,3.507 0,1.936 0,0"
             style="fill:#ffffff;fill-opacity:1;fill-rule:nonzero;stroke:none"
             id="path468"
             inkscape:connector-curvature="0" /></g><g
           id="g470"
           transform="translate(196.5862,264.6291)"><path
             d="M 0,0 C 8.732,10.24 22.52,3.841 23.438,0 24.359,-3.837 10.744,-23.033 10.744,-23.033 10.744,-23.033 0.057,-3.837 0,0"
             style="fill:#f99525;fill-opacity:1;fill-rule:nonzero;stroke:none"
             id="path472"
             inkscape:connector-curvature="0" /></g></g></g><g
       id="g474"><g
         id="g476"
         clip-path="url(#clipPath478)"><g
           id="g482"
           transform="translate(570.5449,47.1104)"><path
             d="m 0,0 c 0.54,0 1.037,-0.471 1.037,-0.471 l -8.905,-19.021 c -0.976,0 -3.316,-0.139 -3.888,-0.139 -0.539,0 -1.037,0.471 -1.037,0.471 l -3.045,19.021 c 1.847,0 4.156,0.139 4.848,0.139 0.542,0 1.037,-0.471 1.037,-0.471 l 0.932,-9.305 c 0.08,-0.802 0.086,-1.914 0.053,-3.086 0.3,1.279 0.629,2.49 0.951,3.307 l 3.703,9.418 C -2.673,-0.137 -0.635,0 -0.002,0 L 0,0 Z"
             style="fill:#0071bc;fill-opacity:1;fill-rule:nonzero;stroke:none"
             id="path484"
             inkscape:connector-curvature="0" /></g><g
           id="g486"
           transform="translate(574.6113,35.7363)"><path
             d="m 0,0 c 0.645,0.203 0.838,0.735 0.838,1.344 0,0.573 -0.186,1.429 -0.851,1.429 -1.198,0 -1.725,-1.934 -1.917,-3.384 L 0,0 Z m 5.11,1.99 c 0,-2.071 -1.156,-3.44 -4.037,-4.034 l -3.022,-0.624 c 0.232,-1.303 1.051,-1.939 2.41,-1.939 1.665,0 2.779,1.256 2.779,1.256 0,0 0.85,-0.473 0.85,-1.446 0,-1.725 -2.647,-3.598 -5.725,-3.598 -3.123,0 -5.161,1.974 -5.161,5.306 0,3.85 2.728,9.072 7.582,9.072 2.658,0 4.324,-1.574 4.324,-3.993"
             style="fill:#0071bc;fill-opacity:1;fill-rule:nonzero;stroke:none"
             id="path488"
             inkscape:connector-curvature="0" /></g><g
           id="g490"
           transform="translate(587.8594,41.7197)"><path
             d="m 0,0 c 2.449,0 4.29,-1.298 4.29,-2.983 0,-2.108 -2.552,-2.878 -2.552,-2.878 0,0 -0.748,2.302 -2.464,2.302 -1.162,0 -1.831,-1.176 -1.831,-3.683 0,-2.31 0.608,-3.349 2.102,-3.349 1.533,0 2.476,1.044 2.476,1.044 0,0 0.851,-0.473 0.851,-1.419 0,-1.651 -2.542,-3.412 -5.501,-3.412 -3.151,0 -5.093,1.974 -5.093,5.254 0,3.901 2.789,9.124 7.724,9.124 L 0,0 Z"
             style="fill:#0071bc;fill-opacity:1;fill-rule:nonzero;stroke:none"
             id="path492"
             inkscape:connector-curvature="0" /></g><g
           id="g494"
           transform="translate(599.6279,44.7939)"><path
             d="m 0,0 c 0.59,0 0.983,-0.45 0.983,-0.45 l -0.461,-2.902 3.073,0 -0.694,-2.211 C 2.677,-6.275 2.323,-6.669 1.603,-6.669 l -1.606,0 -0.895,-5.652 c -0.146,-0.914 0.053,-1.337 0.675,-1.344 0.566,-0.004 1.123,0.345 1.123,0.345 0,0 0.858,-0.478 0.858,-1.374 0,-1.384 -1.974,-2.758 -4.471,-2.758 -2.649,0 -3.718,1.621 -3.268,4.457 l 1,6.326 -1.667,0 0.725,2.308 c 0.187,0.591 0.675,1.009 1.273,1.009 l 0.81,0 0.972,2.671 C -1.666,-0.386 -0.546,0 0,0"
             style="fill:#0071bc;fill-opacity:1;fill-rule:nonzero;stroke:none"
             id="path496"
             inkscape:connector-curvature="0" /></g><g
           id="g498"
           transform="translate(609.4395,35.7363)"><path
             d="m 0,0 c 0.644,0.203 0.838,0.735 0.838,1.344 0,0.573 -0.187,1.429 -0.851,1.429 -1.198,0 -1.727,-1.934 -1.917,-3.384 L 0,0 Z m 5.109,1.99 c 0,-2.071 -1.155,-3.44 -4.036,-4.034 L -1.95,-2.668 c 0.233,-1.303 1.052,-1.939 2.409,-1.939 1.665,0 2.78,1.256 2.78,1.256 0,0 0.851,-0.473 0.851,-1.446 0,-1.725 -2.647,-3.598 -5.725,-3.598 -3.124,0 -5.161,1.974 -5.161,5.306 0,3.85 2.727,9.072 7.582,9.072 2.658,0 4.324,-1.574 4.324,-3.993 l -0.001,0 z"
             style="fill:#0071bc;fill-opacity:1;fill-rule:nonzero;stroke:none"
             id="path500"
             inkscape:connector-curvature="0" /></g><g
           id="g502"
           transform="translate(621.7695,35.7363)"><path
             d="m 0,0 c 0.645,0.203 0.838,0.735 0.838,1.344 0,0.573 -0.188,1.429 -0.851,1.429 -1.198,0 -1.727,-1.934 -1.918,-3.384 L 0,0 Z m 5.108,1.99 c 0,-2.071 -1.155,-3.44 -4.035,-4.034 L -1.95,-2.668 c 0.232,-1.303 1.051,-1.939 2.409,-1.939 1.667,0 2.779,1.256 2.779,1.256 0,0 0.852,-0.473 0.852,-1.446 0,-1.725 -2.647,-3.598 -5.725,-3.598 -3.124,0 -5.162,1.974 -5.162,5.306 0,3.85 2.729,9.072 7.582,9.072 2.659,0 4.325,-1.574 4.325,-3.993 l -0.002,0 z"
             style="fill:#0071bc;fill-opacity:1;fill-rule:nonzero;stroke:none"
             id="path504"
             inkscape:connector-curvature="0" /></g><g
           id="g506"
           transform="translate(636.9648,32.5625)"><path
             d="m 0,0 c 0,0 1.039,-0.96 1.039,-2.548 0,-2.118 -1.794,-2.673 -3.297,-2.673 -1.959,0 -3.384,0.934 -4.874,1.438 -0.415,-0.479 -0.822,-0.959 -1.212,-1.438 0,0 -2.208,0.056 -2.208,1.56 0,1.834 3.057,4.979 6.351,8.544 -0.38,0.068 -0.744,0.115 -1.073,0.115 -1.872,0 -2.598,-0.936 -2.598,-0.936 0,0 -0.963,1.108 -0.882,2.549 0.11,1.998 2.01,2.546 3.502,2.546 1.583,0 2.744,-0.611 3.887,-1.112 l 0.928,1.112 c 0,0 2.227,-0.068 2.227,-1.58 0,-1.769 -2.959,-4.858 -6.157,-8.306 0.677,-0.19 1.307,-0.343 1.932,-0.343 C -0.776,-1.072 0,0 0,0"
             style="fill:#0071bc;fill-opacity:1;fill-rule:nonzero;stroke:none"
             id="path508"
             inkscape:connector-curvature="0" /></g><g
           id="g510"
           transform="translate(651.2988,28.5615)"><path
             d="m 0,0 c -0.795,-4.842 -4.113,-7.303 -8.314,-7.303 -2.683,0 -4.685,1.409 -4.685,3.042 0,1.077 0.897,1.576 0.897,1.576 0,0 0.912,-0.83 2.71,-0.83 1.686,0 3.972,0.719 4.374,3.264 l 0.315,1.981 c -1.132,-1.628 -2.634,-2.95 -4.53,-2.95 -2.132,0 -3.081,1.744 -2.52,5.288 l 0.607,3.836 c 0.373,2.35 0.475,4.267 0.475,4.267 1.517,0.28 3.517,0.987 4.217,0.987 0.542,0 1.045,-0.452 1.045,-0.452 L -6.169,7.904 -6.871,3.475 c -0.064,-0.409 0.013,-0.638 0.383,-0.638 1.766,0 2.762,5.067 2.762,5.067 0.372,2.35 0.475,4.267 0.475,4.267 1.515,0.28 3.516,0.987 4.216,0.987 0.543,0 1.046,-0.452 1.046,-0.452 L 1.25,7.904 0,0 Z"
             style="fill:#0071bc;fill-opacity:1;fill-rule:nonzero;stroke:none"
             id="path512"
             inkscape:connector-curvature="0" /></g><g
           id="g514"
           transform="translate(449.1533,38.7637)"><path
             d="m 0,0 0,-8.534 1.942,0 c 0.727,0 1.251,0.041 1.574,0.123 0.422,0.105 0.772,0.284 1.05,0.536 0.278,0.252 0.505,0.666 0.681,1.244 0.176,0.576 0.264,1.363 0.264,2.36 0,0.996 -0.088,1.76 -0.264,2.293 C 5.071,-1.444 4.825,-1.028 4.509,-0.73 4.192,-0.431 3.791,-0.229 3.305,-0.123 2.941,-0.041 2.229,0 1.169,0 L 0,0 Z m -2.602,2.18 4.755,0 C 3.226,2.18 4.043,2.098 4.605,1.934 5.361,1.711 6.009,1.315 6.548,0.747 7.087,0.179 7.497,-0.518 7.778,-1.34 8.06,-2.164 8.2,-3.179 8.2,-4.386 8.2,-5.446 8.068,-6.36 7.805,-7.128 7.482,-8.066 7.022,-8.824 6.425,-9.404 5.974,-9.844 5.364,-10.187 4.597,-10.433 4.022,-10.614 3.255,-10.705 2.294,-10.705 l -4.896,0 0,12.885 z"
             style="fill:#0071bc;fill-opacity:1;fill-rule:nonzero;stroke:none"
             id="path516"
             inkscape:connector-curvature="0" /></g><g
           id="g518"
           transform="translate(464.728,33.5254)"><path
             d="M 0,0 C -0.018,0.715 -0.202,1.258 -0.554,1.631 -0.905,2.002 -1.333,2.188 -1.837,2.188 -2.376,2.188 -2.821,1.992 -3.173,1.6 -3.524,1.207 -3.697,0.674 -3.691,0 L 0,0 Z M -0.141,-2.496 2.32,-2.909 C 2.004,-3.812 1.504,-4.499 0.822,-4.971 0.139,-5.442 -0.715,-5.678 -1.74,-5.678 c -1.623,0 -2.824,0.53 -3.604,1.591 -0.615,0.85 -0.923,1.922 -0.923,3.217 0,1.547 0.405,2.758 1.213,3.634 0.809,0.876 1.831,1.314 3.068,1.314 1.388,0 2.484,-0.459 3.287,-1.375 0.802,-0.918 1.186,-2.322 1.151,-4.215 l -6.187,0 c 0.017,-0.732 0.217,-1.302 0.597,-1.709 0.381,-0.408 0.856,-0.611 1.424,-0.611 0.387,0 0.712,0.105 0.976,0.316 0.263,0.211 0.463,0.551 0.597,1.02"
             style="fill:#0071bc;fill-opacity:1;fill-rule:nonzero;stroke:none"
             id="path520"
             inkscape:connector-curvature="0" /></g><g
           id="g522"
           transform="translate(467.9624,30.7217)"><path
             d="m 0,0 2.478,0.378 c 0.106,-0.481 0.32,-0.846 0.642,-1.094 0.322,-0.25 0.774,-0.374 1.354,-0.374 0.638,0 1.119,0.117 1.441,0.352 0.217,0.164 0.325,0.384 0.325,0.659 0,0.187 -0.058,0.343 -0.176,0.466 C 5.941,0.504 5.666,0.612 5.238,0.712 3.246,1.151 1.983,1.553 1.45,1.916 0.712,2.42 0.343,3.12 0.343,4.017 c 0,0.808 0.319,1.488 0.958,2.039 0.638,0.55 1.629,0.826 2.97,0.826 1.278,0 2.227,-0.208 2.848,-0.624 C 7.74,5.842 8.168,5.227 8.402,4.412 L 6.073,3.981 C 5.974,4.345 5.785,4.623 5.506,4.816 5.228,5.01 4.831,5.106 4.315,5.106 3.665,5.106 3.199,5.016 2.918,4.834 2.73,4.705 2.637,4.538 2.637,4.333 2.637,4.157 2.719,4.008 2.883,3.885 3.105,3.721 3.874,3.489 5.19,3.19 6.505,2.892 7.424,2.525 7.945,2.092 8.461,1.652 8.719,1.04 8.719,0.255 8.719,-0.601 8.361,-1.336 7.646,-1.951 6.932,-2.566 5.874,-2.874 4.474,-2.874 3.202,-2.874 2.196,-2.616 1.455,-2.101 0.713,-1.585 0.228,-0.885 0,0"
             style="fill:#0071bc;fill-opacity:1;fill-rule:nonzero;stroke:none"
             id="path524"
             inkscape:connector-curvature="0" /></g><path
           d="m 478.483,37.393 2.47,0 0,-9.334 -2.47,0 0,9.334 z m 0,3.55 2.47,0 0,-2.285 -2.47,0 0,2.285 z"
           style="fill:#0071bc;fill-opacity:1;fill-rule:nonzero;stroke:none"
           id="path526"
           inkscape:connector-curvature="0" /><g
           id="g528"
           transform="translate(485.1021,32.9189)"><path
             d="m 0,0 c 0,-0.99 0.192,-1.716 0.576,-2.175 0.383,-0.461 0.857,-0.69 1.419,-0.69 0.604,0 1.113,0.235 1.529,0.708 0.416,0.471 0.624,1.17 0.624,2.096 0,0.966 -0.199,1.684 -0.597,2.153 C 3.152,2.561 2.648,2.795 2.039,2.795 1.447,2.795 0.959,2.564 0.576,2.105 0.192,1.645 0,0.943 0,0 m -2.206,-5.475 2.821,-0.343 c 0.047,-0.328 0.156,-0.554 0.325,-0.677 0.235,-0.176 0.604,-0.264 1.108,-0.264 0.644,0 1.128,0.097 1.45,0.29 0.217,0.129 0.381,0.337 0.492,0.624 0.076,0.205 0.114,0.583 0.114,1.134 l 0,1.362 C 3.366,-4.356 2.435,-4.86 1.31,-4.86 c -1.254,0 -2.247,0.53 -2.98,1.59 -0.574,0.838 -0.861,1.881 -0.861,3.129 0,1.565 0.376,2.76 1.129,3.586 0.753,0.826 1.689,1.24 2.808,1.24 1.155,0 2.107,-0.507 2.857,-1.521 l 0,1.31 2.311,0 0,-8.376 c 0,-1.102 -0.091,-1.925 -0.272,-2.47 C 6.12,-6.917 5.865,-7.345 5.537,-7.655 5.209,-7.966 4.771,-8.209 4.223,-8.385 3.675,-8.561 2.982,-8.648 2.145,-8.648 c -1.583,0 -2.705,0.271 -3.367,0.813 -0.662,0.542 -0.993,1.229 -0.993,2.061 0,0.082 0.003,0.181 0.009,0.299"
             style="fill:#0071bc;fill-opacity:1;fill-rule:nonzero;stroke:none"
             id="path530"
             inkscape:connector-curvature="0" /></g><g
           id="g532"
           transform="translate(502.25,28.0586)"><path
             d="m 0,0 -2.47,0 0,4.764 c 0,1.008 -0.053,1.659 -0.158,1.955 -0.105,0.296 -0.277,0.526 -0.514,0.69 -0.237,0.164 -0.523,0.246 -0.857,0.246 -0.428,0 -0.812,-0.117 -1.151,-0.351 C -5.49,7.069 -5.723,6.759 -5.849,6.372 -5.975,5.985 -6.038,5.271 -6.038,4.228 l 0,-4.228 -2.47,0 0,9.334 2.294,0 0,-1.371 c 0.815,1.055 1.84,1.582 3.076,1.582 0.545,0 1.043,-0.099 1.494,-0.295 C -1.192,9.054 -0.851,8.804 -0.62,8.499 -0.388,8.194 -0.227,7.849 -0.136,7.462 -0.045,7.075 0,6.522 0,5.801 L 0,0 Z"
             style="fill:#0071bc;fill-opacity:1;fill-rule:nonzero;stroke:none"
             id="path534"
             inkscape:connector-curvature="0" /></g><g
           id="g536"
           transform="translate(509.9404,33.5254)"><path
             d="M 0,0 C -0.018,0.715 -0.202,1.258 -0.554,1.631 -0.905,2.002 -1.333,2.188 -1.837,2.188 -2.376,2.188 -2.821,1.992 -3.173,1.6 -3.524,1.207 -3.697,0.674 -3.691,0 L 0,0 Z M -0.141,-2.496 2.32,-2.909 C 2.004,-3.812 1.504,-4.499 0.822,-4.971 0.139,-5.442 -0.715,-5.678 -1.74,-5.678 c -1.623,0 -2.824,0.53 -3.604,1.591 -0.615,0.85 -0.923,1.922 -0.923,3.217 0,1.547 0.405,2.758 1.213,3.634 0.809,0.876 1.831,1.314 3.068,1.314 1.388,0 2.484,-0.459 3.287,-1.375 0.802,-0.918 1.186,-2.322 1.151,-4.215 l -6.187,0 c 0.017,-0.732 0.216,-1.302 0.597,-1.709 0.381,-0.408 0.856,-0.611 1.424,-0.611 0.387,0 0.712,0.105 0.976,0.316 0.263,0.211 0.463,0.551 0.597,1.02"
             style="fill:#0071bc;fill-opacity:1;fill-rule:nonzero;stroke:none"
             id="path538"
             inkscape:connector-curvature="0" /></g><g
           id="g540"
           transform="translate(516.0142,32.9277)"><path
             d="m 0,0 c 0,-0.996 0.138,-1.717 0.413,-2.162 0.399,-0.645 0.955,-0.967 1.67,-0.967 0.568,0 1.052,0.242 1.45,0.725 0.399,0.484 0.598,1.206 0.598,2.167 0,1.072 -0.193,1.843 -0.58,2.315 C 3.164,2.55 2.669,2.786 2.065,2.786 1.48,2.786 0.989,2.553 0.593,2.088 0.198,1.621 0,0.926 0,0 m 6.592,-4.869 -2.294,0 0,1.371 C 3.917,-4.031 3.467,-4.429 2.949,-4.689 2.43,-4.949 1.907,-5.08 1.38,-5.08 c -1.072,0 -1.991,0.432 -2.755,1.297 -0.765,0.863 -1.147,2.069 -1.147,3.616 0,1.582 0.372,2.784 1.116,3.608 0.744,0.823 1.684,1.235 2.821,1.235 1.043,0 1.945,-0.434 2.707,-1.301 l 0,4.641 2.47,0 0,-12.885 z"
             style="fill:#0071bc;fill-opacity:1;fill-rule:nonzero;stroke:none"
             id="path542"
             inkscape:connector-curvature="0" /></g><g
           id="g544"
           transform="translate(531.668,32.9277)"><path
             d="m 0,0 c 0,-0.967 0.152,-1.682 0.457,-2.145 0.428,-0.656 0.996,-0.984 1.705,-0.984 0.545,0 1.009,0.233 1.393,0.699 0.384,0.465 0.576,1.2 0.576,2.201 0,1.067 -0.194,1.835 -0.58,2.307 C 3.164,2.55 2.669,2.786 2.065,2.786 1.474,2.786 0.981,2.556 0.589,2.096 0.196,1.636 0,0.937 0,0 m -2.452,-4.869 0,12.885 2.469,0 0,-4.641 C 0.779,4.242 1.682,4.676 2.725,4.676 3.861,4.676 4.802,4.264 5.546,3.441 6.29,2.617 6.662,1.436 6.662,-0.105 6.662,-1.699 6.283,-2.927 5.524,-3.788 4.765,-4.649 3.844,-5.08 2.76,-5.08 c -0.534,0 -1.059,0.134 -1.578,0.4 -0.519,0.266 -0.965,0.66 -1.34,1.182 l 0,-1.371 -2.294,0 z"
             style="fill:#0071bc;fill-opacity:1;fill-rule:nonzero;stroke:none"
             id="path546"
             inkscape:connector-curvature="0" /></g><g
           id="g548"
           transform="translate(538.7876,37.3926)"><path
             d="M 0,0 2.628,0 4.86,-6.627 7.04,0 9.598,0 6.302,-8.982 5.713,-10.608 c -0.217,-0.545 -0.424,-0.961 -0.62,-1.249 -0.196,-0.287 -0.422,-0.519 -0.676,-0.698 -0.255,-0.178 -0.569,-0.318 -0.941,-0.418 -0.372,-0.099 -0.792,-0.149 -1.261,-0.149 -0.475,0 -0.941,0.05 -1.398,0.149 l -0.219,1.934 c 0.386,-0.076 0.735,-0.114 1.046,-0.114 0.574,0 0.999,0.169 1.274,0.504 0.275,0.338 0.486,0.767 0.633,1.289 L 0,0 Z"
             style="fill:#0071bc;fill-opacity:1;fill-rule:nonzero;stroke:none"
             id="path550"
             inkscape:connector-curvature="0" /></g></g></g></g></svg>